<?xml version="1.0" encoding="UTF-8"?>
<svg version="1.1" xmlns="http://www.w3.org/2000/svg" width="500" height="500">
<path d="M0 0 C165 0 330 0 500 0 C500 165 500 330 500 500 C335 500 170 500 0 500 C0 335 0 170 0 0 Z " fill="#000000" transform="translate(0,0)"/>
<path d="M0 0 C0.66 0 1.32 0 2 0 C2.33733154 0.61931396 2.67466309 1.23862793 3.0222168 1.87670898 C4.57692795 4.73051497 6.13221069 7.58400907 7.6875 10.4375 C8.48317383 11.89833008 8.48317383 11.89833008 9.29492188 13.38867188 C10.08286133 14.8340332 10.08286133 14.8340332 10.88671875 16.30859375 C11.40669434 17.26362793 11.92666992 18.21866211 12.46240234 19.20263672 C14.31367267 22.57066711 16.21196035 25.91095818 18.12817383 29.24243164 C19 31 19 31 19 33 C25.1133383 28.63332978 30.74755057 23.82171984 36.36743164 18.84692383 C40.74850117 14.99391675 45.28638492 11.4376562 50 8 C52.62012689 20.29933348 54.76767678 32.48219043 56 45 C65.22116885 42.39959617 74.09918543 39.13505872 83.0144043 35.64257812 C84.3279187 35.13114258 84.3279187 35.13114258 85.66796875 34.609375 C86.45453857 34.29967773 87.2411084 33.98998047 88.05151367 33.67089844 C90 33 90 33 92 33 C91.36451992 40.89204731 90.00909631 48.4937382 88.37304688 56.23242188 C87.22286548 61.94119767 86.81667921 67.17512988 87 73 C82.09322336 72.54684891 79.81739653 71.42753888 76.3125 68 C72.73620739 64.61760277 69.12220784 61.36893664 65.3125 58.25 C64.03826172 57.20585937 64.03826172 57.20585937 62.73828125 56.140625 C61.83464844 55.43421875 60.93101562 54.7278125 60 54 C59.01 53.20722656 58.02 52.41445312 57 51.59765625 C35.30798563 36.42755761 5.39968037 34.18989495 -20 38 C-37.44066092 41.36542971 -54.33649013 48.33931013 -66.55615234 61.51318359 C-68.90681782 63.93380462 -71.53037946 65.92186292 -74.1875 68 C-79.64868845 72.29512824 -83.170641 77.04784152 -86.6015625 83.0703125 C-87.25640625 84.21371094 -87.91125 85.35710937 -88.5859375 86.53515625 C-89.26582095 87.73165951 -89.94550649 88.92827525 -90.625 90.125 C-91.96972376 92.4827067 -93.31685156 94.8390246 -94.6640625 97.1953125 C-95.25654785 98.23703613 -95.8490332 99.27875977 -96.45947266 100.35205078 C-97.57683806 102.2726443 -98.76746853 104.1512028 -100 106 C-100.60564777 108.46843473 -101.12445038 110.890305 -101.578125 113.38671875 C-101.71321472 114.1213887 -101.84830444 114.85605865 -101.98748779 115.61299133 C-102.27053627 117.17492511 -102.5493367 118.73763375 -102.82421875 120.30102539 C-103.24121759 122.6382752 -103.69024575 124.9678179 -104.140625 127.29882812 C-106.06051839 137.79732656 -105.78480123 146.48339098 -104 157 C-103.80418934 158.89175371 -103.62155157 160.78495613 -103.45703125 162.6796875 C-101.112863 183.40346543 -89.30161595 206.22301508 -72.8125 219.4375 C-72.25006592 219.89850098 -71.68763184 220.35950195 -71.1081543 220.83447266 C-69.96021468 221.7746221 -68.80960565 222.7115223 -67.65625 223.64501953 C-66.10451695 224.91449454 -64.58227135 226.21977451 -63.0625 227.52734375 C-61.70125 228.68943359 -61.70125 228.68943359 -60.3125 229.875 C-59.13107422 230.89207031 -59.13107422 230.89207031 -57.92578125 231.9296875 C-53.85166067 234.81257656 -49.50051577 236.8651347 -45 239 C-43.7766394 239.61391602 -43.7766394 239.61391602 -42.52856445 240.24023438 C-19.91742072 251.25733677 9.45954799 252.82054937 33.36473083 244.87670898 C40.49481837 242.34908593 47.48924805 239.39998388 54.17041016 235.84521484 C56.52357618 234.75812373 58.44040468 234.85780026 61 235 C57.53875262 239.16076457 53.74965394 240.57193948 48.8125 242.375 C48.11447266 242.64054688 47.41644531 242.90609375 46.69726562 243.1796875 C45.11982462 243.77380652 43.53622538 244.35170143 41.94848633 244.91772461 C39.70254731 245.74212203 37.50230205 246.61113446 35.29174805 247.52172852 C24.21981487 251.94248862 14.06551952 253.23511943 2.1875 253.1875 C1.2898996 253.19013855 0.39229919 253.1927771 -0.53250122 253.19549561 C-14.47889289 253.14291934 -26.85801163 250.93986928 -39.9375 246.125 C-40.67868073 245.85730804 -41.41986145 245.58961609 -42.1835022 245.31381226 C-52.42906173 241.51260315 -59.22417692 236.73937771 -67 229 C-69.92479574 226.56480696 -72.97623096 224.30294686 -76.03320312 222.03710938 C-84.1596615 215.84685185 -88.76829785 208.33956271 -93.625 199.4375 C-94.74006634 197.41419414 -95.85719672 195.39202418 -96.9765625 193.37109375 C-97.46205566 192.48349365 -97.94754883 191.59589355 -98.44775391 190.68139648 C-99.9786624 187.91157513 -99.9786624 187.91157513 -102.09082031 185.23022461 C-104.51134169 181.13483863 -104.99458775 177.60851663 -105.5703125 172.9453125 C-105.82910031 171.17814612 -106.08956983 169.41122534 -106.3515625 167.64453125 C-106.74470516 164.88616 -107.1246244 162.12796648 -107.47460938 159.36376953 C-108.68833652 146.786475 -108.68833652 146.786475 -115.890625 137.03125 C-117.56965444 135.98128012 -119.27090148 134.96529525 -121 134 C-122.05562719 133.18096334 -123.09422457 132.33868468 -124.1015625 131.4609375 C-129.30088853 127.1630426 -134.55290128 122.97997184 -140 119 C-137.40566886 116.40566886 -134.51879824 115.58420614 -131.12890625 114.3984375 C-130.45077377 114.1571109 -129.7726413 113.9157843 -129.07395935 113.66714478 C-127.64005315 113.15845073 -126.20513183 112.6526104 -124.76928711 112.14941406 C-122.57184571 111.37827963 -120.3785723 110.59609252 -118.18554688 109.8125 C-116.7919024 109.3196454 -115.3980295 108.82743616 -114.00390625 108.3359375 C-113.34757706 108.10160004 -112.69124786 107.86726257 -112.01502991 107.62582397 C-109.19713013 106.64467005 -107.00947773 106 -104 106 C-106.91944061 98.27075302 -111.44745504 91.46321406 -115.75610352 84.44750977 C-116.78231486 82.77314002 -117.80335226 81.09560261 -118.82421875 79.41796875 C-119.73820435 77.92946411 -119.73820435 77.92946411 -120.6706543 76.41088867 C-122 74 -122 74 -122 72 C-109.79 71.67 -97.58 71.34 -85 71 C-85.70335968 62.54794579 -85.70335968 62.54794579 -86.97265625 54.2890625 C-87.14990234 53.35449219 -87.32714844 52.41992188 -87.50976562 51.45703125 C-87.78336914 50.05517578 -87.78336914 50.05517578 -88.0625 48.625 C-88.43256728 46.7221627 -88.79859786 44.8185349 -89.16015625 42.9140625 C-89.32136963 42.0885791 -89.48258301 41.2630957 -89.64868164 40.41259766 C-90.01336345 37.90822963 -90.06049143 35.52713516 -90 33 C-79.71224835 36.55563192 -69.44516635 40.11125098 -59.3359375 44.15234375 C-57.10082242 45.11370397 -57.10082242 45.11370397 -55 45 C-52.49299158 32.69402468 -50.1166707 20.37931653 -48 8 C-42.21117134 12.08037779 -37.03233809 16.65284176 -31.83203125 21.453125 C-27.70661772 25.16315206 -23.38066694 28.59809378 -19 32 C-16.00597658 29.38494518 -14.36506405 26.33399305 -12.4609375 22.87109375 C-11.97145126 21.98563622 -11.97145126 21.98563622 -11.47207642 21.08229065 C-10.43489579 19.20330355 -9.40492078 17.32047432 -8.375 15.4375 C-7.6749404 14.16706344 -6.9744244 12.89687827 -6.2734375 11.62695312 C-3.05863306 5.85475135 -3.05863306 5.85475135 0 0 Z " fill="#018F9B" transform="translate(200,124)"/>
<path d="M0 0 C0 18.15 0 36.3 0 55 C3.63 55 7.26 55 11 55 C11 57.97 11 60.94 11 64 C-4.345 64.495 -4.345 64.495 -20 65 C-20.33 67.97 -20.66 70.94 -21 74 C-18.36 74 -15.72 74 -13 74 C-12.505 78.455 -12.505 78.455 -12 83 C-11.67 82.67 -11.34 82.34 -11 82 C-6.81711109 81.48244174 -3.20250376 81.30856034 0.5 83.4375 C2.69857822 87.19340447 3.19502439 90.67195868 3 95 C1.85472153 98.31527977 0.95404589 100.21631945 -1.75 102.4375 C-5.02411132 103.25602783 -7.73046579 102.67858257 -11 102 C-11.33 101.67 -11.66 101.34 -12 101 C-12.33 101.66 -12.66 102.32 -13 103 C-15.31 103 -17.62 103 -20 103 C-20.33 95.74 -20.66 88.48 -21 81 C-28.21797409 96.90604688 -28.21797409 96.90604688 -35 113 C-37.31 113 -39.62 113 -42 113 C-41.71125 112.319375 -41.4225 111.63875 -41.125 110.9375 C-40.75375 109.968125 -40.3825 108.99875 -40 108 C-39.566875 106.9275 -39.13375 105.855 -38.6875 104.75 C-37.78128386 99.80700287 -39.08501046 96.54037842 -41 92 C-43.83538907 91.87055003 -43.83538907 91.87055003 -47 93 C-48.36580663 94.78869854 -48.36580663 94.78869854 -49.5 96.9375 C-51.17336819 99.90175222 -51.74643547 100.85913082 -54.8125 102.5625 C-59.95971763 103.26898085 -64.13367793 102.8520166 -68.875 100.6875 C-71.88419255 98.2978471 -72.84146716 96.22033422 -73.3359375 92.4140625 C-73.4194693 86.44989227 -73.24202761 82.59552991 -69 78 C-64.81961134 75.47582465 -60.7930494 75.42291612 -56 75 C-56 71.7 -56 68.4 -56 65 C-58.97 64.67 -61.94 64.34 -65 64 C-64.43502681 58.02503686 -62.01508046 53.07003677 -59.5625 47.67578125 C-58.90229858 46.20095528 -58.90229858 46.20095528 -58.22875977 44.69633484 C-56.82572872 41.56539744 -55.41321902 38.43885024 -54 35.3125 C-52.58872479 32.17459827 -51.17940288 29.03582981 -49.77124023 25.89653015 C-48.89538446 23.94566482 -48.0173598 21.99577149 -47.13696289 20.04695129 C-46.73985107 19.1656102 -46.34273926 18.2842691 -45.93359375 17.3762207 C-45.58353271 16.6015596 -45.23347168 15.8268985 -44.87280273 15.02876282 C-43.90811499 12.86505783 -43.90811499 12.86505783 -43 10 C-52.9 10 -62.8 10 -73 10 C-73 7.03 -73 4.06 -73 1 C-59.47 1 -45.94 1 -32 1 C-32 5.29 -32 9.58 -32 14 C-29.03 14.33 -26.06 14.66 -23 15 C-22.34 13.68 -21.68 12.36 -21 11 C-19.3798346 8.9860444 -17.7656631 7.12386529 -16 5.25 C-15.56816406 4.74339844 -15.13632813 4.23679688 -14.69140625 3.71484375 C-9.79261721 -1.43374189 -8.21348589 0 0 0 Z " fill="#020A1A" transform="translate(239,209)"/>
<path d="M0 0 C2.875 2.375 2.875 2.375 5 5 C5.598125 5.721875 6.19625 6.44375 6.8125 7.1875 C9.08099234 12.56024501 8.78027941 17.99356723 6.6875 23.375 C5.21117971 25.67149823 3.71527868 27.87632164 2 30 C2.42152344 30.36609375 2.84304688 30.7321875 3.27734375 31.109375 C7.9541045 35.73111504 8.9487506 39.68372166 9.16796875 46.1953125 C8.8645703 51.26136111 6.92282152 53.89774096 3.75 57.6875 C-2.53212274 62.97019412 -7.79081521 63.50821917 -15.84375 63.27734375 C-22.09036169 62.72844594 -26.11587893 61.3130973 -30.375 56.625 C-33.26271193 52.90550148 -35 49.78942308 -35 45 C-31.600219 44.64964089 -28.38533743 44.46239138 -25 45 C-22.5 47.9375 -22.5 47.9375 -21 51 C-18.31432703 52.34283649 -16.12253147 52.24287519 -13.125 52.3125 C-12.07570313 52.34988281 -11.02640625 52.38726562 -9.9453125 52.42578125 C-6.29931199 51.89870691 -5.20314233 50.89805871 -3 48 C-2.13954018 44.55816074 -1.66903735 42.11323799 -2.6875 38.6875 C-4.96688266 35.75686515 -7.38593103 35.08431517 -11.015625 34.5859375 C-12.08296875 34.51632813 -13.1503125 34.44671875 -14.25 34.375 C-15.32765625 34.30023438 -16.4053125 34.22546875 -17.515625 34.1484375 C-18.33546875 34.09945312 -19.1553125 34.05046875 -20 34 C-20 31.03 -20 28.06 -20 25 C-19.26394531 24.96261719 -18.52789062 24.92523438 -17.76953125 24.88671875 C-10.36561412 24.51033449 -10.36561412 24.51033449 -4 21 C-2.55569145 18.11138291 -2.62311494 16.20352299 -3 13 C-5.04407175 10.03279907 -6.67796727 8.41119282 -10.16015625 7.328125 C-14.22031271 6.65030255 -16.30293932 6.59956089 -19.9375 8.6875 C-22.26516111 11.09433797 -22.26516111 11.09433797 -24 15 C-27.3 15 -30.6 15 -34 15 C-32.86386606 8.52403654 -31.00772395 4.37163892 -26 0 C-17.90101097 -4.82824346 -8.30003268 -4.12536278 0 0 Z " fill="#56BFC5" transform="translate(292,211)"/>
<path d="M0 0 C0 18.15 0 36.3 0 55 C3.63 55 7.26 55 11 55 C11 57.97 11 60.94 11 64 C-0.22 64.33 -11.44 64.66 -23 65 C-23 61.7 -23 58.4 -23 55 C-18.71 55 -14.42 55 -10 55 C-10 41.8 -10 28.6 -10 15 C-12.64 17.31 -15.28 19.62 -18 22 C-19.65651812 23.34592097 -21.31806068 24.6859849 -23 26 C-23.97825697 20.89132469 -24.63385647 15.77247479 -21.88525391 11.10839844 C-20.401548 9.16968939 -18.83337019 7.43091867 -17.125 5.6875 C-16.58979736 5.11878174 -16.05459473 4.55006348 -15.50317383 3.96411133 C-10.06685759 -1.13149859 -8.42687434 0 0 0 Z " fill="#56BFC5" transform="translate(239,209)"/>
<path d="M0 0 C13.53 0 27.06 0 41 0 C41 12.37581442 41 12.37581442 39.11987305 16.68334961 C38.70912033 17.65062485 38.29836761 18.61790009 37.87516785 19.61448669 C37.42522964 20.61697952 36.97529144 21.61947235 36.51171875 22.65234375 C36.05271683 23.71489883 35.5937149 24.77745392 35.12080383 25.87220764 C34.15403935 28.10058251 33.17782386 30.32487883 32.19262695 32.54516602 C30.68451628 35.94422487 29.20415716 39.3543146 27.72851562 42.76757812 C26.78282578 44.93818722 25.83561306 47.1081336 24.88671875 49.27734375 C24.44285324 50.2940062 23.99898773 51.31066864 23.54167175 52.35813904 C23.12146255 53.30334915 22.70125336 54.24855927 22.26831055 55.22241211 C21.90190964 56.05083115 21.53550873 56.87925018 21.15800476 57.73277283 C19.9651868 60.06815985 18.72838401 62.02663101 17 64 C14.73828125 64.171875 14.73828125 64.171875 12.3125 63.75 C11.50425781 63.62109375 10.69601563 63.4921875 9.86328125 63.359375 C9.24839844 63.24078125 8.63351563 63.1221875 8 63 C8.56497319 57.02503686 10.98491954 52.07003677 13.4375 46.67578125 C14.09770142 45.20095528 14.09770142 45.20095528 14.77124023 43.69633484 C16.17427128 40.56539744 17.58678098 37.43885024 19 34.3125 C20.41127521 31.17459827 21.82059712 28.03582981 23.22875977 24.89653015 C24.10461554 22.94566482 24.9826402 20.99577149 25.86303711 19.04695129 C26.26014893 18.1656102 26.65726074 17.2842691 27.06640625 16.3762207 C27.41646729 15.6015596 27.76652832 14.8268985 28.12719727 14.02876282 C29.09188501 11.86505783 29.09188501 11.86505783 30 9 C20.1 9 10.2 9 0 9 C0 6.03 0 3.06 0 0 Z " fill="#54BAC0" transform="translate(166,210)"/>
<path d="M0 0 C11.79538368 4.04052715 23.47650815 8.23346473 35 13 C26.09704839 21.99732919 16.55327517 30.96448322 6 38 C5.13981192 33.39288448 4.28549707 28.78473237 3.43652344 24.17553711 C3.14710676 22.60883464 2.85610859 21.04242344 2.56347656 19.47631836 C2.14228359 17.22064373 1.72685478 14.96397074 1.3125 12.70703125 C1.18125732 12.01100296 1.05001465 11.31497467 0.91479492 10.59785461 C0.26388311 7.01988602 -0.14785121 3.63775572 0 0 Z " fill="#027F8C" transform="translate(110,157)"/>
<path d="M0 0 C-1.98 11.88 -3.96 23.76 -6 36 C-9.34847433 33.9909154 -12.0091987 32.30143187 -14.92578125 29.85546875 C-15.64056641 29.26056641 -16.35535156 28.66566406 -17.09179688 28.05273438 C-17.82462891 27.43720703 -18.55746094 26.82167969 -19.3125 26.1875 C-24.76142257 21.62481864 -30.26878759 17.20469716 -36 13 C-33.40566886 10.40566886 -30.51879824 9.58420614 -27.12890625 8.3984375 C-26.45077377 8.1571109 -25.7726413 7.9157843 -25.07395935 7.66714478 C-23.64005315 7.15845073 -22.20513183 6.6526104 -20.76928711 6.14941406 C-18.57184571 5.37827963 -16.3785723 4.59609252 -14.18554688 3.8125 C-12.7919024 3.3196454 -11.3980295 2.82743616 -10.00390625 2.3359375 C-9.34757706 2.10160004 -8.69124786 1.86726257 -8.01502991 1.62582397 C-5.19713013 0.64467005 -3.00947773 0 0 0 Z " fill="#025865" transform="translate(96,230)"/>
<path d="M0 0 C12.21 0 24.42 0 37 0 C33.15357488 7.05177939 29.28495965 14.05897523 25.25 21 C24.76917969 21.83144531 24.28835937 22.66289062 23.79296875 23.51953125 C21.92679572 26.73725021 20.064215 29.90367749 18 33 C17.70609375 32.43796875 17.4121875 31.8759375 17.109375 31.296875 C13.00330708 23.60389717 8.52523796 16.16210869 3.96386719 8.73144531 C3.45243164 7.8906543 2.94099609 7.04986328 2.4140625 6.18359375 C1.9495166 5.42618896 1.4849707 4.66878418 1.00634766 3.88842773 C0 2 0 2 0 0 Z " fill="#026C79" transform="translate(78,196)"/>
<path d="M0 0 C-0.41173159 6.03399739 -1.23665874 11.98758622 -2.3125 17.9375 C-2.64701172 19.83822266 -2.64701172 19.83822266 -2.98828125 21.77734375 C-4.10059812 25.32043804 -4.78071852 26.2806784 -8 28 C-12.74548597 29.55455575 -12.74548597 29.55455575 -16 29 C-19.69884112 26.74257523 -22.78247762 23.88637952 -26 21 C-27.6970899 19.65238491 -29.40472361 18.31788835 -31.125 17 C-31.87007813 16.4225 -32.61515625 15.845 -33.3828125 15.25 C-33.91648437 14.8375 -34.45015625 14.425 -35 14 C-33.41066674 10.82133348 -30.15395885 10.34479476 -26.97265625 9.1796875 C-25.91648354 8.78440353 -25.91648354 8.78440353 -24.838974 8.38113403 C-23.34808335 7.82478118 -21.85589891 7.27188511 -20.36254883 6.72216797 C-18.0726365 5.87873354 -15.7870688 5.02430237 -13.50195312 4.16796875 C-12.05493066 3.62955436 -10.60767263 3.09177259 -9.16015625 2.5546875 C-8.13040428 2.17037064 -8.13040428 2.17037064 -7.07984924 1.77828979 C-2.23250626 0 -2.23250626 0 0 0 Z " fill="#00D0D7" transform="translate(292,157)"/>
<path d="M0 0 C2.91884123 4.37826185 3.28308636 8.85062994 4 14 C4.1340625 14.82886719 4.268125 15.65773437 4.40625 16.51171875 C4.63594226 18.92758908 4.67679143 20.66529667 4 23 C0.67839657 26.74786246 -4.11532458 29.84310319 -9 31 C-13.49932922 30.50149477 -17.23320855 29.2322763 -21.375 27.4375 C-22.43460938 26.98246094 -23.49421875 26.52742188 -24.5859375 26.05859375 C-25.38257813 25.70925781 -26.17921875 25.35992187 -27 25 C-27 24.34 -27 23.68 -27 23 C-25.42713316 21.58561594 -23.78860004 20.24395599 -22.125 18.9375 C-17.3420714 15.1148505 -12.76408391 11.14111549 -8.23828125 7.01953125 C-5.55387852 4.59747853 -2.80118216 2.28517492 0 0 Z " fill="#08D4DF" transform="translate(249,132)"/>
<path d="M0 0 C3.91689852 2.7704892 7.02064235 5.18692704 8.5625 9.8125 C8.92881844 15.39885614 8.79482115 19.01974794 5.5625 23.8125 C1.4625 26.8125 1.4625 26.8125 -1.4375 26.8125 C-1.4375 27.8025 -1.4375 28.7925 -1.4375 29.8125 C-0.715625 29.85375 0.00625 29.895 0.75 29.9375 C4.8310215 31.20715113 6.04781026 33.38972785 8.5625 36.8125 C10.16339019 40.01428039 9.9198266 43.33018987 9.5625 46.8125 C7.57930749 52.24018476 4.64078173 54.92339996 -0.20703125 57.8984375 C-5.52801002 60.07901374 -12.47064471 59.67414557 -17.92578125 58.08984375 C-22.10812483 56.1443845 -24.98225554 53.80227225 -27.4375 49.8125 C-27.4375 48.8225 -27.4375 47.8325 -27.4375 46.8125 C-22.5940954 47.22764897 -20.62162171 49.27458699 -17.4375 52.8125 C-15.58807253 54.66192747 -12.73323569 54.0716876 -10.25 54.125 C-4.55899921 54.07507894 -1.48720693 53.86220693 2.5625 49.8125 C4.67113429 46.17031349 5.07212203 42.97441328 4.5625 38.8125 C2.41176489 34.81827764 0.77465695 32.48231936 -3.4375 30.8125 C-6.02282701 30.36185368 -6.02282701 30.36185368 -8.6875 30.1875 C-9.57953125 30.11273438 -10.4715625 30.03796875 -11.390625 29.9609375 C-12.40382813 29.88746094 -12.40382813 29.88746094 -13.4375 29.8125 C-13.4375 28.8225 -13.4375 27.8325 -13.4375 26.8125 C-12.53386719 26.63074219 -11.63023437 26.44898438 -10.69921875 26.26171875 C-9.51972656 26.01035156 -8.34023438 25.75898438 -7.125 25.5 C-5.36736328 25.13455078 -5.36736328 25.13455078 -3.57421875 24.76171875 C-0.52434346 23.83878015 0.68561081 23.30434264 2.5625 20.8125 C4.1617715 17.613957 3.92377908 14.29148371 3.5625 10.8125 C2.17515239 7.34413098 0.97252674 6.08902966 -2.125 4 C-7.42116465 2.10137494 -11.45383535 2.10137494 -16.75 4 C-19.70035415 5.98977373 -20.65092701 7.80780906 -22.4375 10.8125 C-23.7575 10.8125 -25.0775 10.8125 -26.4375 10.8125 C-25.9346962 6.45486704 -23.38448863 3.89344266 -20.4375 0.8125 C-14.13452645 -2.36573963 -6.59022782 -2.27662416 0 0 Z " fill="#071423" transform="translate(288.4375,212.1875)"/>
<path d="M0 0 C1.98 0 3.96 0 6 0 C6.33 2.64 6.66 5.28 7 8 C7.33 7.67 7.66 7.34 8 7 C12.18288891 6.48244174 15.79749624 6.30856034 19.5 8.4375 C21.69857822 12.19340447 22.19502439 15.67195868 22 20 C20.85472153 23.31527977 19.95404589 25.21631945 17.25 27.4375 C14.0013381 28.24966548 11.25972079 27.603652 8 27 C7.34 27 6.68 27 6 27 C4.02 27 2.04 27 0 27 C0 18.09 0 9.18 0 0 Z " fill="#1BC1D9" transform="translate(220,284)"/>
<path d="M0 0 C0.66 0 1.32 0 2 0 C3.36936501 2.40912355 4.72041993 4.82574185 6.0625 7.25 C6.64741211 8.27287109 6.64741211 8.27287109 7.24414062 9.31640625 C7.60830078 9.98027344 7.97246094 10.64414063 8.34765625 11.328125 C8.68804932 11.9355957 9.02844238 12.54306641 9.37915039 13.16894531 C10.18615305 15.54901609 9.91600501 16.67579531 9 19 C7.13601271 21.49349017 4.89148896 23.61808319 2.6875 25.8125 C2.10548828 26.42287109 1.52347656 27.03324219 0.92382812 27.66210938 C0.35470703 28.23380859 -0.21441406 28.80550781 -0.80078125 29.39453125 C-1.31809814 29.91893799 -1.83541504 30.44334473 -2.3684082 30.98364258 C-4 32 -4 32 -6.03979492 31.6315918 C-6.6866626 31.4231665 -7.33353027 31.21474121 -8 31 C-9.66821323 31.32550502 -11.33499557 31.65846063 -13 32 C-13.99 31.67 -14.98 31.34 -16 31 C-14.72597209 26.83825208 -13.16132252 23.22500573 -10.99609375 19.453125 C-10.42052734 18.44378906 -9.84496094 17.43445313 -9.25195312 16.39453125 C-8.65318359 15.35683594 -8.05441406 14.31914062 -7.4375 13.25 C-6.24844698 11.17201857 -5.0596326 9.09390056 -3.87109375 7.015625 C-3.34443115 6.10071289 -2.81776855 5.18580078 -2.27514648 4.24316406 C-1.48202892 2.84795744 -0.71772376 1.43544752 0 0 Z " fill="#05B8C3" transform="translate(200,124)"/>
<path d="M0 0 C0 18.15 0 36.3 0 55 C3.63 55 7.26 55 11 55 C11 55.99 11 56.98 11 58 C2.09 58 -6.82 58 -16 58 C-16 57.01 -16 56.02 -16 55 C-12.04 55 -8.08 55 -4 55 C-4 38.83 -4 22.66 -4 6 C-8.57447048 8.73802922 -8.57447048 8.73802922 -12.1875 12.1875 C-13.5796875 13.5796875 -13.5796875 13.5796875 -15 15 C-15.66 15 -16.32 15 -17 15 C-16.54428464 10.22788627 -14.63832521 8.04315324 -11.3125 4.6875 C-10.46300781 3.80449219 -9.61351562 2.92148438 -8.73828125 2.01171875 C-6 0 -6 0 0 0 Z " fill="#061221" transform="translate(236,212)"/>
<path d="M0 0 C2.8203092 1.58236817 5.07960101 3.38647687 7 6 C7 6.99 7 7.98 7 9 C3.625 9.125 3.625 9.125 0 9 C-0.66 8.34 -1.32 7.68 -2 7 C-5.5 6.66666667 -5.5 6.66666667 -9 7 C-11.60704898 9.60704898 -11.23905333 11.47338241 -11.265625 15.02734375 C-11.10382514 17.31952326 -11.10382514 17.31952326 -9 20 C-4.94554358 20.43132515 -3.45029042 20.30019361 0 18 C2.33199388 17.92094936 4.66832622 17.91201231 7 18 C5.50234852 21.96437157 4.48292142 23.70645953 0.8125 25.9375 C-4.68514873 27.46963161 -8.58726727 27.10146494 -13.875 24.6875 C-16.88419255 22.2978471 -17.84146716 20.22033422 -18.3359375 16.4140625 C-18.4194693 10.44989227 -18.24202761 6.59552991 -14 2 C-9.55419064 -0.70901759 -5.06016597 -0.90664536 0 0 Z " fill="#08D1DC" transform="translate(184,285)"/>
<path d="M0 0 C11.55 0 23.1 0 35 0 C35 7.87516555 35 7.87516555 33.62646484 10.98486328 C33.17501602 12.03228195 33.17501602 12.03228195 32.71444702 13.1008606 C32.38328888 13.83327972 32.05213074 14.56569885 31.7109375 15.3203125 C31.37003082 16.10082977 31.02912415 16.88134705 30.67788696 17.68551636 C29.58882905 20.17078488 28.48217217 22.64775664 27.375 25.125 C26.65380057 26.76512096 25.93373827 28.40574245 25.21484375 30.046875 C21.24640725 39.07902832 17.17420324 48.06099882 13 57 C11.68 57 10.36 57 9 57 C9.58012639 53.6466956 10.40180427 50.7756181 11.82592773 47.68798828 C12.38672279 46.46113815 12.38672279 46.46113815 12.95884705 45.20950317 C13.36301346 44.33857025 13.76717987 43.46763733 14.18359375 42.5703125 C14.59916031 41.66175507 15.01472687 40.75319763 15.44288635 39.81710815 C16.76941429 36.91740976 18.10266104 34.02088102 19.4375 31.125 C21.19190981 27.31769255 22.93962922 23.50741375 24.68359375 19.6953125 C25.08573593 18.82842804 25.48787811 17.96154358 25.90220642 17.06838989 C26.27922195 16.24418549 26.65623749 15.41998108 27.04467773 14.57080078 C27.37475327 13.8553006 27.7048288 13.13980042 28.04490662 12.40261841 C29.25853064 9.34964426 30.09744453 6.15894414 31 3 C20.77 3 10.54 3 0 3 C0 2.01 0 1.02 0 0 Z " fill="#040D1D" transform="translate(169,213)"/>
<path d="M0 0 C2.31 0 4.62 0 7 0 C7.64757625 1.43671568 8.29299453 2.87440416 8.9375 4.3125 C9.29714844 5.11300781 9.65679687 5.91351563 10.02734375 6.73828125 C11 9 11 9 12 12 C13.65 8.04 15.3 4.08 17 0 C19.31 0 21.62 0 24 0 C22.44695576 4.88209452 20.58938378 9.58630932 18.625 14.3125 C18.31554443 15.06072021 18.00608887 15.80894043 17.68725586 16.57983398 C15.53797445 21.75711164 13.31977982 26.89648439 11 32 C8.69 32 6.38 32 4 32 C4.28875 31.319375 4.5775 30.63875 4.875 29.9375 C5.24625 28.968125 5.6175 27.99875 6 27 C6.433125 25.97648437 6.86625 24.95296875 7.3125 23.8984375 C8.26319993 18.50753676 6.52567633 15.45389136 4.125 10.6875 C3.35412721 9.08851139 2.58576802 7.48830774 1.8203125 5.88671875 C1.47242676 5.18764404 1.12454102 4.48856934 0.76611328 3.76831055 C0 2 0 2 0 0 Z " fill="#12C3D4" transform="translate(193,290)"/>
<path d="M0 0 C3.125 2.125 3.125 2.125 5 5 C5 6.98 5 8.96 5 11 C-1.435 11.495 -1.435 11.495 -8 12 C-7.67 12.99 -7.34 13.98 -7 15 C-6.319375 14.835 -5.63875 14.67 -4.9375 14.5 C-1.5835178 13.92910941 1.60389805 13.93340977 5 14 C3.13529649 17.54293666 1.90635582 19.77228817 -2 21 C-6.04731569 21.52791074 -7.71493159 21.16135948 -11.3125 19.125 C-14.120542 16.90468772 -14.84526225 16.24895468 -15.2734375 12.79296875 C-15.44585496 8.36979777 -15.44436576 5.74060959 -13.125 1.875 C-8.72217433 -0.7666954 -5.00928591 -1.01828107 0 0 Z " fill="#3CA6D4" transform="translate(321,291)"/>
<path d="M0 0 C3.125 2.125 3.125 2.125 5 5 C5 6.98 5 8.96 5 11 C-1.435 11.495 -1.435 11.495 -8 12 C-7.67 12.99 -7.34 13.98 -7 15 C-6.319375 14.835 -5.63875 14.67 -4.9375 14.5 C-1.5835178 13.92910941 1.60389805 13.93340977 5 14 C3.13529649 17.54293666 1.90635582 19.77228817 -2 21 C-6.04731569 21.52791074 -7.71493159 21.16135948 -11.3125 19.125 C-14.120542 16.90468772 -14.84526225 16.24895468 -15.2734375 12.79296875 C-15.44585496 8.36979777 -15.44436576 5.74060959 -13.125 1.875 C-8.72217433 -0.7666954 -5.00928591 -1.01828107 0 0 Z " fill="#25BAD8" transform="translate(260,291)"/>
<path d="M0 0 C1.98 0 3.96 0 6 0 C7.32 3.3 8.64 6.6 10 10 C10.66 10 11.32 10 12 10 C13.32 6.7 14.64 3.4 16 0 C17.98 0 19.96 0 22 0 C19.8197371 6.87947032 17.19745965 13.45055898 14.3125 20.0625 C13.89677734 21.02349609 13.48105469 21.98449219 13.05273438 22.97460938 C12.03848513 25.31787486 11.02085998 27.65960887 10 30 C7.69 30 5.38 30 3 30 C3.78125 28.37239583 4.5625 26.74479167 5.34375 25.1171875 C7.11658181 19.39769439 5.46226243 15.00876103 3 9.8125 C0 3.3597973 0 3.3597973 0 0 Z " fill="#246B91" transform="translate(421,291)"/>
<path d="M0 0 C1.98 0 3.96 0 6 0 C6.07347656 1.37285156 6.07347656 1.37285156 6.1484375 2.7734375 C6.22320312 3.96195312 6.29796875 5.15046875 6.375 6.375 C6.47941406 8.15003906 6.47941406 8.15003906 6.5859375 9.9609375 C6.70217346 13.10562319 6.70217346 13.10562319 9 15 C10.65 14.67 12.3 14.34 14 14 C14.33 9.38 14.66 4.76 15 0 C16.98 0 18.96 0 21 0 C21 6.6 21 13.2 21 20 C18.33333333 20 15.66666667 20 13 20 C11.88625 20.20625 10.7725 20.4125 9.625 20.625 C6 21 6 21 3.6875 20.375 C1.35772829 18.4766675 0.90199717 16.86999099 0 14 C-0.1953125 10.44921875 -0.1953125 10.44921875 -0.125 6.6875 C-0.10695313 5.43324219 -0.08890625 4.17898438 -0.0703125 2.88671875 C-0.03550781 1.45779297 -0.03550781 1.45779297 0 0 Z " fill="#4F97D2" transform="translate(353,291)"/>
<path d="M0 0 C-0.14148989 1.6045556 -0.28835686 3.20863767 -0.4375 4.8125 C-0.51871094 5.70582031 -0.59992188 6.59914062 -0.68359375 7.51953125 C-1.07787437 10.61049658 -1.44051498 12.48021237 -3.76171875 14.63671875 C-8.63730475 17.6063165 -14.3858117 17.34400734 -19.8125 16.1875 C-25.34482759 14.12643678 -25.34482759 14.12643678 -28 13 C-28 12.01 -28 11.02 -28 10 C-24.33547148 8.57157089 -20.66927431 7.14752324 -17.00146484 5.72753906 C-15.13939585 5.00558153 -13.27867593 4.28014762 -11.41796875 3.5546875 C-10.25136719 3.10351562 -9.08476562 2.65234375 -7.8828125 2.1875 C-6.80402832 1.76855469 -5.72524414 1.34960938 -4.61376953 0.91796875 C-2 0 -2 0 0 0 Z " fill="#09ECF6" transform="translate(292,157)"/>
<path d="M0 0 C2.6875 1.8125 2.6875 1.8125 4 4 C4 4.99 4 5.98 4 7 C1.125 7.125 1.125 7.125 -2 7 C-2.66 6.34 -3.32 5.68 -4 5 C-6.10820797 5.3185177 -6.10820797 5.3185177 -8 6 C-8.76716851 8.85078091 -8.76716851 8.85078091 -9 12 C-7.68681738 13.89958081 -7.68681738 13.89958081 -6 15 C-5.195625 14.505 -5.195625 14.505 -4.375 14 C-1.4608939 12.77300796 0.86867708 12.85766714 4 13 C3.875 15.3125 3.875 15.3125 3 18 C-0.36966011 20.46560496 -3.02972836 21.25134325 -7.125 20.9375 C-11.1529843 19.96298767 -12.54293015 19.24333221 -15 16 C-16.86430138 12.27139723 -15.78872921 7.97570819 -15 4 C-12.04373618 -1.64377639 -5.62050277 -0.86141241 0 0 Z " fill="#449ED1" transform="translate(345,291)"/>
<path d="M0 0 C0.9590625 -0.00773437 1.918125 -0.01546875 2.90625 -0.0234375 C5.5 0.375 5.5 0.375 7.34375 1.7109375 C8.5 3.375 8.5 3.375 8.5 6.375 C4.28121808 6.57122241 1.32989106 6.17730168 -2.5 4.375 C-2.5 5.365 -2.5 6.355 -2.5 7.375 C-1.43458984 7.68244141 -1.43458984 7.68244141 -0.34765625 7.99609375 C1.03099609 8.40021484 1.03099609 8.40021484 2.4375 8.8125 C3.35402344 9.07933594 4.27054687 9.34617187 5.21484375 9.62109375 C7.5 10.375 7.5 10.375 8.5 11.375 C8.875 14.75 8.875 14.75 8.5 18.375 C5.88866076 20.75592696 4.03641225 21.29510881 0.5625 21.8125 C-3.339218 21.25511171 -5.49133614 19.88221988 -8.5 17.375 C-8.5 16.385 -8.5 15.395 -8.5 14.375 C-4.28121808 14.17877759 -1.32989106 14.57269832 2.5 16.375 C2.5 15.385 2.5 14.395 2.5 13.375 C1.87351562 13.18164062 1.24703125 12.98828125 0.6015625 12.7890625 C-0.21570313 12.52867187 -1.03296875 12.26828125 -1.875 12 C-3.09316406 11.61714844 -3.09316406 11.61714844 -4.3359375 11.2265625 C-6.5 10.375 -6.5 10.375 -8.5 8.375 C-8.85481549 5.60743919 -8.9790946 4.04191242 -7.32421875 1.73828125 C-4.82407192 -0.13013683 -3.0931045 -0.02494439 0 0 Z " fill="#34ACD4" transform="translate(293.5,290.625)"/>
<path d="M0 0 C1.98 0 3.96 0 6 0 C6.33 1.65 6.66 3.3 7 5 C7.99 5.33 8.98 5.66 10 6 C10 7.32 10 8.64 10 10 C9.01 10.33 8.02 10.66 7 11 C7 13.97 7 16.94 7 20 C7.99 20.33 8.98 20.66 10 21 C10 22.65 10 24.3 10 26 C3.25 26.125 3.25 26.125 1 25 C-0.28614943 21.14155171 -0.37171328 17.44158462 -0.62109375 13.3984375 C-0.74613281 12.60695313 -0.87117188 11.81546875 -1 11 C-1.66 10.67 -2.32 10.34 -3 10 C-3 8.68 -3 7.36 -3 6 C-2.34 5.67 -1.68 5.34 -1 5 C-0.34444881 2.47266765 -0.34444881 2.47266765 0 0 Z " fill="#417CB1" transform="translate(408,285)"/>
<path d="M0 0 C0.33 0 0.66 0 1 0 C1.50075283 3.1297052 1.66534101 5.88661037 1 9 C-2.24748348 12.76897718 -7.15602717 15.85274328 -12 17 C-16.49932922 16.50149477 -20.23320855 15.2322763 -24.375 13.4375 C-25.43460938 12.98246094 -26.49421875 12.52742187 -27.5859375 12.05859375 C-28.38257813 11.70925781 -29.17921875 11.35992187 -30 11 C-30 10.34 -30 9.68 -30 9 C-24.45925926 7.86666667 -24.45925926 7.86666667 -22.0625 8.5625 C-19.46409778 9.11367623 -18.1786548 8.5744395 -15.75 7.5625 C-15.04359375 7.27503906 -14.3371875 6.98757812 -13.609375 6.69140625 C-13.07828125 6.46324219 -12.5471875 6.23507813 -12 6 C-11.34 6.66 -10.68 7.32 -10 8 C-10.66 8.66 -11.32 9.32 -12 10 C-7.95767919 9.14489368 -5.54741339 8.561819 -2.625 5.5625 C-0.8776667 3.03467128 -0.8776667 3.03467128 0 0 Z " fill="#00B1BA" transform="translate(252,146)"/>
<path d="M0 0 C4.33333333 0 8.66666667 0 13 0 C13 1.98 13 3.96 13 6 C12.195625 6.12375 11.39125 6.2475 10.5625 6.375 C9.2940625 6.684375 9.2940625 6.684375 8 7 C6.71553081 9.56893838 6.67022856 11.76576337 6.4375 14.625 C6.31181641 16.12933594 6.31181641 16.12933594 6.18359375 17.6640625 C6.12300781 18.43492187 6.06242187 19.20578125 6 20 C4.02 20 2.04 20 0 20 C0 13.4 0 6.8 0 0 Z " fill="#2DB6D9" transform="translate(269,291)"/>
<path d="M0 0 C4.33333333 0 8.66666667 0 13 0 C13 1.98 13 3.96 13 6 C11.02 6.66 9.04 7.32 7 8 C6.67 11.96 6.34 15.92 6 20 C4.02 20 2.04 20 0 20 C0 13.4 0 6.8 0 0 Z " fill="#5691D1" transform="translate(379,291)"/>
<path d="M0 0 C2.13421924 2.59817995 3.70590632 4.60227941 4 8 C2.59375 10.10546875 2.59375 10.10546875 0.5 12.1875 C-0.1703125 12.88230469 -0.840625 13.57710937 -1.53125 14.29296875 C-6.70168228 17.8680936 -13.36424054 17.13473456 -19.4375 17.0625 C-20.16904297 17.05798828 -20.90058594 17.05347656 -21.65429688 17.04882812 C-23.43623419 17.03718148 -25.21812863 17.01925191 -27 17 C-26.67 16.34 -26.34 15.68 -26 15 C-22.66666667 15 -19.33333333 15 -16 15 C-11.9453798 13.54759874 -9.25534119 10.51689944 -6.3125 7.5 C-5.81427734 7.00113281 -5.31605469 6.50226563 -4.80273438 5.98828125 C-2.06240704 3.24846654 -2.06240704 3.24846654 0 0 Z " fill="#00929E" transform="translate(210,140)"/>
<path d="M0 0 C6.8359375 -0.1953125 6.8359375 -0.1953125 9 0 C9.66 0.66 10.32 1.32 11 2 C10.89400837 4.2876526 10.48590253 6.45606048 10.09375 8.7109375 C9.98427359 11.38398647 10.63563585 12.73639584 12 15 C10.68 15 9.36 15 8 15 C5.75 12.5 5.75 12.5 4 10 C3.67 11.65 3.34 13.3 3 15 C2.01 15 1.02 15 0 15 C0 10.05 0 5.1 0 0 Z " fill="#1F9CB9" transform="translate(193,327)"/>
<path d="M0 0 C1.98 0 3.96 0 6 0 C6 6.6 6 13.2 6 20 C4.02 20 2.04 20 0 20 C0 13.4 0 6.8 0 0 Z " fill="#5288C6" transform="translate(396,291)"/>
<path d="M0 0 C0.33 0 0.66 0 1 0 C1.25 2.3125 1.25 2.3125 1 5 C-1.55242866 7.97783343 -4.9005424 8.93317969 -8.76171875 9.34765625 C-13.36485906 8.63268332 -16.68614515 5.07605508 -20 2 C-17 2 -17 2 -15 3 C-14.67 2.34 -14.34 1.68 -14 1 C-13.07316406 1.01160156 -12.14632813 1.02320313 -11.19140625 1.03515625 C-9.39509766 1.04869141 -9.39509766 1.04869141 -7.5625 1.0625 C-5.77005859 1.07990234 -5.77005859 1.07990234 -3.94140625 1.09765625 C-1.11126659 1.33901792 -1.11126659 1.33901792 0 0 Z " fill="#01B3BD" transform="translate(287,177)"/>
<path d="M0 0 C0 0.66 0 1.32 0 2 C-1.98 2.33 -3.96 2.66 -6 3 C-4.06745228 5.0245738 -2.36841312 6.42105792 0 8 C0.3125 10.5 0.3125 10.5 0 13 C-2 15 -2 15 -3.9453125 15.1953125 C-5.96354167 15.13020833 -7.98177083 15.06510417 -10 15 C-9.67 14.01 -9.34 13.02 -9 12 C-7.35 12 -5.7 12 -4 12 C-4 11.34 -4 10.68 -4 10 C-4.99 9.401875 -5.98 8.80375 -7 8.1875 C-10 6 -10 6 -10.5625 3.375 C-9.1917934 -2.41242786 -4.61124133 -0.87004553 0 0 Z " fill="#0BB7C5" transform="translate(177,327)"/>
<path d="M0 0 C0 0.66 0 1.32 0 2 C-2.31 2.66 -4.62 3.32 -7 4 C-7 6.31 -7 8.62 -7 11 C-4.69 11.66 -2.38 12.32 0 13 C0 13.66 0 14.32 0 15 C-3.051 15.28783019 -5.95681985 15.41473429 -9 15 C-11.41108026 12.73074799 -11.94764352 11.28148706 -12.08203125 7.9921875 C-11.86291724 4.78246342 -11.37907932 2.48113913 -9.375 -0.0625 C-6.0138415 -1.38927309 -3.474204 -0.73492777 0 0 Z " fill="#4289BD" transform="translate(241,327)"/>
<path d="M0 0 C1.32 0.33 2.64 0.66 4 1 C5.46742502 3.89652178 6.11450315 6.85648617 7 10 C8.32 6.7 9.64 3.4 11 0 C11.66 0 12.32 0 13 0 C12.43179252 5.45479185 11.05362055 9.91059256 9 15 C7.35 14.67 5.7 14.34 4 14 C2.68 9.38 1.36 4.76 0 0 Z " fill="#32A3CA" transform="translate(206,327)"/>
<path d="M0 0 C2.97 0 5.94 0 9 0 C9 0.66 9 1.32 9 2 C7.02 2.33 5.04 2.66 3 3 C4.93254772 5.0245738 6.63158688 6.42105792 9 8 C9.3125 10.5 9.3125 10.5 9 13 C7 15 7 15 5.0546875 15.1953125 C3.03645833 15.13020833 1.01822917 15.06510417 -1 15 C-0.67 14.01 -0.34 13.02 0 12 C1.65 12 3.3 12 5 12 C5 11.34 5 10.68 5 10 C3.03852126 8.61061923 1.03833424 7.2739589 -1 6 C-0.67 4.02 -0.34 2.04 0 0 Z " fill="#28638A" transform="translate(257,327)"/>
<path d="M0 0 C2.97 0 5.94 0 9 0 C9 0.66 9 1.32 9 2 C7.35 2.33 5.7 2.66 4 3 C4 3.66 4 4.32 4 5 C5.65 5.33 7.3 5.66 9 6 C9 6.66 9 7.32 9 8 C7.35 8.33 5.7 8.66 4 9 C4 9.99 4 10.98 4 12 C5.65 12.33 7.3 12.66 9 13 C9 13.66 9 14.32 9 15 C6.03 15 3.06 15 0 15 C0 10.05 0 5.1 0 0 Z " fill="#16C0D5" transform="translate(180,327)"/>
<path d="M0 0 C0.99 0.66 1.98 1.32 3 2 C0.01036252 5.89952715 -3.01252992 6.991976 -7.671875 7.89453125 C-11.42372344 8.06449754 -13.74865324 6.79861736 -17 5 C-17 4.34 -17 3.68 -17 3 C-11.43115438 1.86091794 -11.43115438 1.86091794 -9.0625 2.625 C-6.68207256 3.25631487 -6.68207256 3.25631487 -3.4375 1.4375 C-2.303125 0.963125 -1.16875 0.48875 0 0 Z " fill="#00C4CB" transform="translate(239,152)"/>
<path d="M0 0 C2.5625 0.1875 2.5625 0.1875 4.5625 2.1875 C4.8125 5.1875 4.8125 5.1875 4.5625 8.1875 C2.5625 10.1875 2.5625 10.1875 0.0625 10.4375 C-2.4375 10.1875 -2.4375 10.1875 -4.4375 8.1875 C-3.74456522 0.28804348 -3.74456522 0.28804348 0 0 Z " fill="#010C1C" transform="translate(230.4375,295.8125)"/>
<path d="M0 0 C0.33 0 0.66 0 1 0 C1.33 3.3 1.66 6.6 2 10 C-0.3125 11.5625 -0.3125 11.5625 -3 13 C-3.99 12.67 -4.98 12.34 -6 12 C-6.66 12.165 -7.32 12.33 -8 12.5 C-10 13 -10 13 -13 12 C-12.67 11.01 -12.34 10.02 -12 9 C-10.00458132 8.31974363 -8.00382009 7.65509503 -6 7 C-1.99975192 4.27138315 -1.99975192 4.27138315 0 0 Z " fill="#018F9D" transform="translate(253,152)"/>
<path d="M0 0 C2.64 0 5.28 0 8 0 C8 0.66 8 1.32 8 2 C6.35 2.33 4.7 2.66 3 3 C3 3.66 3 4.32 3 5 C4.65 5.33 6.3 5.66 8 6 C8 6.66 8 7.32 8 8 C6.35 8.33 4.7 8.66 3 9 C3 9.99 3 10.98 3 12 C4.65 12.33 6.3 12.66 8 13 C8 13.66 8 14.32 8 15 C5.36 15 2.72 15 0 15 C0 10.05 0 5.1 0 0 Z " fill="#5288C6" transform="translate(245,327)"/>
<path d="M0 0 C1.32 0 2.64 0 4 0 C4 4.95 4 9.9 4 15 C2.68 15 1.36 15 0 15 C0 10.05 0 5.1 0 0 Z " fill="#3586B2" transform="translate(222,327)"/>
<path d="M0 0 C1.4606285 2.64738916 2 3.89448334 2 7 C2.66 7.33 3.32 7.66 4 8 C-1.45479185 7.43179252 -5.91059256 6.05362055 -11 4 C-9.1875 2.4375 -9.1875 2.4375 -7 1 C-6.01 1.33 -5.02 1.66 -4 2 C-1.83284443 1.12516085 -1.83284443 1.12516085 0 0 Z " fill="#017988" transform="translate(254,162)"/>
<path d="M0 0 C1.79244141 0.01740234 1.79244141 0.01740234 3.62109375 0.03515625 C5.41740234 0.04869141 5.41740234 0.04869141 7.25 0.0625 C8.17683594 0.07410156 9.10367187 0.08570313 10.05859375 0.09765625 C10.05859375 1.08765625 10.05859375 2.07765625 10.05859375 3.09765625 C8.48078125 3.31421875 8.48078125 3.31421875 6.87109375 3.53515625 C3.90398826 3.97292591 0.99065009 4.47570491 -1.94140625 5.09765625 C-2.60140625 3.77765625 -3.26140625 2.45765625 -3.94140625 1.09765625 C-2.94140625 0.09765625 -2.94140625 0.09765625 0 0 Z " fill="#08161E" transform="translate(315.94140625,301.90234375)"/>
<path d="M0 0 C1.79244141 0.01740234 1.79244141 0.01740234 3.62109375 0.03515625 C5.41740234 0.04869141 5.41740234 0.04869141 7.25 0.0625 C8.17683594 0.07410156 9.10367187 0.08570313 10.05859375 0.09765625 C10.05859375 1.08765625 10.05859375 2.07765625 10.05859375 3.09765625 C8.48078125 3.31421875 8.48078125 3.31421875 6.87109375 3.53515625 C3.90398826 3.97292591 0.99065009 4.47570491 -1.94140625 5.09765625 C-2.60140625 3.77765625 -3.26140625 2.45765625 -3.94140625 1.09765625 C-2.94140625 0.09765625 -2.94140625 0.09765625 0 0 Z " fill="#051A20" transform="translate(254.94140625,301.90234375)"/>
<path d="M0 0 C0.640625 1.80078125 0.640625 1.80078125 1 4 C-3 9.66666667 -3 9.66666667 -7 11 C-7 7 -7 7 -5.46875 5.078125 C-4.8190625 4.47484375 -4.169375 3.8715625 -3.5 3.25 C-2.8503125 2.63640625 -2.200625 2.0228125 -1.53125 1.390625 C-1.0259375 0.93171875 -0.520625 0.4728125 0 0 Z M-10 10 C-9.34 10.33 -8.68 10.66 -8 11 C-8.99 11 -9.98 11 -11 11 C-10.67 10.67 -10.34 10.34 -10 10 Z " fill="#00CDD3" transform="translate(251,145)"/>
<path d="M0 0 C0 0.66 0 1.32 0 2 C-1.98 2.33 -3.96 2.66 -6 3 C-6.33 4.65 -6.66 6.3 -7 8 C-7.99 7.34 -8.98 6.68 -10 6 C-10.375 3.5 -10.375 3.5 -10 1 C-6.1496895 -1.56687367 -4.41430237 -0.83288724 0 0 Z " fill="#07B8C3" transform="translate(177,327)"/>
<path d="M0 0 C0.66 0 1.32 0 2 0 C0.63016497 3.16115776 0.0109362 3.9927092 -3 6 C-5.12109375 6.265625 -5.12109375 6.265625 -7.4375 6.25 C-8.19933594 6.25515625 -8.96117187 6.2603125 -9.74609375 6.265625 C-12.21443018 5.9747292 -13.857686 5.22975656 -16 4 C-15.67 3.34 -15.34 2.68 -15 2 C-13.4840625 2.309375 -13.4840625 2.309375 -11.9375 2.625 C-7.70017127 3.02855512 -4.97534722 2.431125 -1 1 C-0.67 0.67 -0.34 0.34 0 0 Z " fill="#00DDE3" transform="translate(288,170)"/>
<path d="M0 0 C3 3 3 3 4 7 C0.7 7 -2.6 7 -6 7 C-4.02 4.69 -2.04 2.38 0 0 Z " fill="#016979" transform="translate(215,150)"/>
<path d="M0 0 C0.66 0.99 1.32 1.98 2 3 C-7.41002278 12.59453303 -7.41002278 12.59453303 -12 16 C-12.66 15.67 -13.32 15.34 -14 15 C-13.07316406 14.08476562 -12.14632812 13.16953125 -11.19140625 12.2265625 C-9.98163961 11.0261739 -8.77201135 9.82564583 -7.5625 8.625 C-6.95083984 8.02171875 -6.33917969 7.4184375 -5.70898438 6.796875 C-5.12568359 6.21679688 -4.54238281 5.63671875 -3.94140625 5.0390625 C-3.40201416 4.50490723 -2.86262207 3.97075195 -2.30688477 3.42041016 C-0.89153023 2.01347612 -0.89153023 2.01347612 0 0 Z " fill="#009EA9" transform="translate(210,140)"/>
<path d="M0 0 C0.33 1.32 0.66 2.64 1 4 C-0.56877674 5.5358444 -2.15556154 7.05331331 -3.75 8.5625 C-4.63171875 9.40941406 -5.5134375 10.25632813 -6.421875 11.12890625 C-9 13 -9 13 -11.328125 12.77734375 C-11.87984375 12.52082031 -12.4315625 12.26429688 -13 12 C-12.67 11.01 -12.34 10.02 -12 9 C-10.00458132 8.31974363 -8.00382009 7.65509503 -6 7 C-1.99975192 4.27138315 -1.99975192 4.27138315 0 0 Z " fill="#0199A5" transform="translate(253,152)"/>
<path d="M0 0 C1.98 0 3.96 0 6 0 C6 1.65 6 3.3 6 5 C3.625 5.625 3.625 5.625 1 6 C0.34 5.34 -0.32 4.68 -1 4 C-0.625 1.875 -0.625 1.875 0 0 Z " fill="#5589C9" transform="translate(396,282)"/>
<path d="M0 0 C0.66 0.99 1.32 1.98 2 3 C0.93283928 4.20205464 -0.15438337 5.38632333 -1.25 6.5625 C-2.15492188 7.55443359 -2.15492188 7.55443359 -3.078125 8.56640625 C-3.71234375 9.03949219 -4.3465625 9.51257813 -5 10 C-6.32 9.67 -7.64 9.34 -9 9 C-6.03 6.03 -3.06 3.06 0 0 Z " fill="#017C8A" transform="translate(214,147)"/>
<path d="M0 0 C-1.51602308 4.24486463 -4.16089161 5.82691978 -8 8 C-10.32420075 8.82907361 -12.59401422 9.42256341 -15 10 C-12.22941499 7.02418647 -9.51464884 5.02092308 -6 3 C-5.278125 2.443125 -4.55625 1.88625 -3.8125 1.3125 C-2 0 -2 0 0 0 Z " fill="#01A8B3" transform="translate(253,153)"/>
<path d="M0 0 C0.66 0.33 1.32 0.66 2 1 C2.125 3.375 2.125 3.375 2 6 C0 8 0 8 -1.9453125 8.1953125 C-3.96354167 8.13020833 -5.98177083 8.06510417 -8 8 C-7.67 7.01 -7.34 6.02 -7 5 C-5.35 5 -3.7 5 -2 5 C-1.34 3.35 -0.68 1.7 0 0 Z " fill="#1F6284" transform="translate(264,334)"/>
<path d="M0 0 C1.34262065 0.29369827 2.67696283 0.6278958 4 1 C4.66 0.67 5.32 0.34 6 0 C6 2.64 6 5.28 6 8 C3.36 6.02 0.72 4.04 -2 2 C-1.34 1.34 -0.68 0.68 0 0 Z " fill="#017182" transform="translate(280,187)"/>
<path d="M0 0 C0.66 0 1.32 0 2 0 C1.30859375 1.91015625 1.30859375 1.91015625 0 4 C-2.27734375 4.93359375 -2.27734375 4.93359375 -4.9375 5.4375 C-5.81277344 5.62183594 -6.68804687 5.80617187 -7.58984375 5.99609375 C-10 6 -10 6 -11.81640625 4.53515625 C-12.40228516 3.77525391 -12.40228516 3.77525391 -13 3 C-12.22914063 2.95101562 -11.45828125 2.90203125 -10.6640625 2.8515625 C-9.66117187 2.77679688 -8.65828125 2.70203125 -7.625 2.625 C-6.62726563 2.55539063 -5.62953125 2.48578125 -4.6015625 2.4140625 C-1.84491121 2.23636036 -1.84491121 2.23636036 0 0 Z " fill="#01A5B1" transform="translate(286,180)"/>
<path d="M0 0 C0 1.65 0 3.3 0 5 C-3.81489674 6.46726798 -6.29011622 5.43336419 -10 4 C-7.41339157 1.41339157 -3.74482865 0 0 0 Z " fill="#0295A3" transform="translate(287,183)"/>
<path d="M0 0 C1.65 0.33 3.3 0.66 5 1 C5.33 1.99 5.66 2.98 6 4 C3.36 4 0.72 4 -2 4 C-1.34 2.68 -0.68 1.36 0 0 Z " fill="#081B30" transform="translate(314,295)"/>
<path d="M0 0 C1.65 0.33 3.3 0.66 5 1 C5.33 1.99 5.66 2.98 6 4 C3.36 4 0.72 4 -2 4 C-1.34 2.68 -0.68 1.36 0 0 Z " fill="#041D2F" transform="translate(253,295)"/>
<path d="M0 0 C3.96 0 7.92 0 12 0 C11.01 1.485 11.01 1.485 10 3 C8.125 3.328125 8.125 3.328125 6 3.25 C5.29875 3.23453125 4.5975 3.2190625 3.875 3.203125 C2 3 2 3 0 2 C0 1.34 0 0.68 0 0 Z " fill="#01BEC8" transform="translate(272,178)"/>
<path d="M0 0 C0.66 0.33 1.32 0.66 2 1 C1.67 2.32 1.34 3.64 1 5 C-1.64 5 -4.28 5 -7 5 C-6.67 4.01 -6.34 3.02 -6 2 C-4.35 2 -2.7 2 -1 2 C-0.67 1.34 -0.34 0.68 0 0 Z " fill="#0CC9D7" transform="translate(174,337)"/>
<path d="M0 0 C2.97 0 5.94 0 9 0 C9 0.66 9 1.32 9 2 C5.92382812 2.29296875 5.92382812 2.29296875 2.84765625 2.5859375 C1.93306641 2.79089844 1.93306641 2.79089844 1 3 C0.67 3.66 0.34 4.32 0 5 C0 3.35 0 1.7 0 0 Z " fill="#2C6A94" transform="translate(257,327)"/>
<path d="M0 0 C2.31 0.33 4.62 0.66 7 1 C7 1.66 7 2.32 7 3 C4.36 3.66 1.72 4.32 -1 5 C-0.67 3.35 -0.34 1.7 0 0 Z " fill="#3F7EAF" transform="translate(234,326)"/>
<path d="M0 0 C0.70125 0.144375 1.4025 0.28875 2.125 0.4375 C5.07556141 1.01478375 8.03270151 1.51695141 11 2 C11 2.33 11 2.66 11 3 C9.54263913 3.19491452 8.08405407 3.38069358 6.625 3.5625 C5.81289063 3.66691406 5.00078125 3.77132813 4.1640625 3.87890625 C2 4 2 4 0 3 C0 2.01 0 1.02 0 0 Z " fill="#061A2A" transform="translate(291,295)"/>
<path d="M0 0 C0 0.99 0 1.98 0 3 C0.66 3.33 1.32 3.66 2 4 C-4.75 3.25 -4.75 3.25 -7 1 C-3.375 -1.125 -3.375 -1.125 0 0 Z " fill="#015D6E" transform="translate(256,166)"/>
<path d="M0 0 C1.98 0.66 3.96 1.32 6 2 C6 2.99 6 3.98 6 5 C4.35 4.67 2.7 4.34 1 4 C0.67 2.68 0.34 1.36 0 0 Z " fill="#041323" transform="translate(290,302)"/>
<path d="M0 0 C0.66 0.33 1.32 0.66 2 1 C-0.97 3.475 -0.97 3.475 -4 6 C-4.66 5.34 -5.32 4.68 -6 4 C-4.02 2.68 -2.04 1.36 0 0 Z M-8 5 C-7.34 5.33 -6.68 5.66 -6 6 C-6.99 6 -7.98 6 -9 6 C-8.67 5.67 -8.34 5.34 -8 5 Z " fill="#00C0C8" transform="translate(249,150)"/>
<path d="M0 0 C3.48539917 0.64544429 6.02819057 2.10134397 9 4 C8.01 4.495 8.01 4.495 7 5 C4.64018187 4.06421005 2.30368736 3.06652192 0 2 C0 1.34 0 0.68 0 0 Z " fill="#00B8C1" transform="translate(222,155)"/>
</svg>
