<?xml version="1.0" encoding="UTF-8"?>
<svg version="1.1" xmlns="http://www.w3.org/2000/svg" width="391" height="260">
<path d="M0 0 C4.36953738 1.50391138 5.57732013 4.28534653 7.671875 8.25 C8.16279633 9.17087402 8.16279633 9.17087402 8.66363525 10.11035156 C9.35126512 11.40537203 10.03342959 12.70330744 10.71044922 14.00390625 C11.74936732 15.99878516 12.80471248 17.98424056 13.86328125 19.96875 C19 29.68114486 19 29.68114486 19 32 C25.4368651 27.20287831 31.50127886 22.02881495 37.50610352 16.70825195 C41.50786617 13.19036429 45.61663402 10.03117082 50 7 C52.22483671 13.77472799 53.11681226 20.70762195 54.125 27.75 C54.39763672 29.59658203 54.39763672 29.59658203 54.67578125 31.48046875 C56 40.57078242 56 40.57078242 56 44 C59.0637598 42.94110953 62.1259773 41.87784101 65.1875 40.8125 C66.09556396 40.49659912 67.00362793 40.18069824 67.93920898 39.85522461 C74.21053188 37.66034493 80.40620913 35.33897134 86.56640625 32.84765625 C89 32 89 32 92 32 C91.3757664 41.53462602 89.58317944 50.69045632 87.640625 60.03125 C87.41632813 61.145 87.19203125 62.25875 86.9609375 63.40625 C86.75259277 64.40978516 86.54424805 65.41332031 86.32958984 66.44726562 C85.79685426 69.11573447 85.79685426 69.11573447 87 72 C82.09322336 71.54684891 79.81739653 70.42753888 76.3125 67 C71.08627548 62.05008645 65.60962155 57.50665448 60 53 C59.25177979 52.36006104 58.50355957 51.72012207 57.73266602 51.06079102 C37.56993299 35.85542789 7.61293324 33.50292875 -16.50909424 36.59667969 C-33.02593998 39.27103995 -49.50572907 45.8450646 -62 57 C-63.18876016 57.9953563 -64.37989127 58.98789331 -65.57421875 59.9765625 C-66.6131856 60.85795485 -67.65098825 61.74072177 -68.6875 62.625 C-69.20376953 63.06328125 -69.72003906 63.5015625 -70.25195312 63.953125 C-71.29962275 64.84331881 -72.34375087 65.73769759 -73.38427734 66.63623047 C-74.493537 67.57251401 -75.6258276 68.48197501 -76.77587891 69.36767578 C-81.57734349 73.16705044 -84.22384587 77.21121324 -87 82.625 C-87.85485438 84.2458039 -88.71162804 85.86559697 -89.5703125 87.484375 C-89.9818457 88.26490234 -90.39337891 89.04542969 -90.81738281 89.84960938 C-92.34738463 92.63166058 -94.11630586 95.23318477 -95.875 97.875 C-100.18005014 105.20166984 -101.23854768 113.20717177 -102.55175781 121.484375 C-102.96388956 123.79734097 -103.50095495 126.01572037 -104.1171875 128.28125 C-109.01250457 147.82644042 -103.91480206 173.16215001 -94.0625 190.5 C-92.53882713 193.01669044 -90.97467087 195.49056644 -89.34667969 197.94091797 C-88.20980792 199.67920233 -87.18810203 201.49199432 -86.1953125 203.31640625 C-81.76160321 211.39127059 -74.88361053 216.77244667 -67.83642578 222.49707031 C-66.17721823 223.85496471 -64.55050143 225.24070078 -62.93359375 226.6484375 C-62.02738281 227.42445313 -61.12117188 228.20046875 -60.1875 229 C-59.41792969 229.66 -58.64835937 230.32 -57.85546875 231 C-53.80121442 233.83964189 -49.4625137 235.87932194 -45 238 C-44.18426514 238.40943848 -43.36853027 238.81887695 -42.52807617 239.24072266 C-19.91566442 250.25617541 9.45867432 251.8208397 33.36473083 243.87670898 C40.49481837 241.34908593 47.48924805 238.39998388 54.17041016 234.84521484 C56.52357618 233.75812373 58.44040468 233.85780026 61 234 C57.53875262 238.16076457 53.74965394 239.57193948 48.8125 241.375 C48.11447266 241.64054688 47.41644531 241.90609375 46.69726562 242.1796875 C45.11982462 242.77380652 43.53622538 243.35170143 41.94848633 243.91772461 C39.70254731 244.74212203 37.50230205 245.61113446 35.29174805 246.52172852 C24.21981487 250.94248862 14.06551952 252.23511943 2.1875 252.1875 C1.2898996 252.19013855 0.39229919 252.1927771 -0.53250122 252.19549561 C-14.47889289 252.14291934 -26.85801163 249.93986928 -39.9375 245.125 C-40.67868073 244.85730804 -41.41986145 244.58961609 -42.1835022 244.31381226 C-52.42906173 240.51260315 -59.22417692 235.73937771 -67 228 C-69.92479574 225.56480696 -72.97623096 223.30294686 -76.03320312 221.03710938 C-84.1596615 214.84685185 -88.76829785 207.33956271 -93.625 198.4375 C-94.74006634 196.41419414 -95.85719672 194.39202418 -96.9765625 192.37109375 C-97.46205566 191.48349365 -97.94754883 190.59589355 -98.44775391 189.68139648 C-99.9786624 186.91157513 -99.9786624 186.91157513 -102.09082031 184.23022461 C-104.51134169 180.13483863 -104.99458775 176.60851663 -105.5703125 171.9453125 C-105.82910031 170.17814612 -106.08956983 168.41122534 -106.3515625 166.64453125 C-106.74470516 163.88616 -107.1246244 161.12796648 -107.47460938 158.36376953 C-108.68833652 145.786475 -108.68833652 145.786475 -115.890625 136.03125 C-117.56965444 134.98128012 -119.27090148 133.96529525 -121 133 C-122.05562719 132.18096334 -123.09422457 131.33868468 -124.1015625 130.4609375 C-129.30088853 126.1630426 -134.55290128 121.97997184 -140 118 C-137.40566886 115.40566886 -134.51879824 114.58420614 -131.12890625 113.3984375 C-130.45077377 113.1571109 -129.7726413 112.9157843 -129.07395935 112.66714478 C-127.64005315 112.15845073 -126.20513183 111.6526104 -124.76928711 111.14941406 C-122.57184571 110.37827963 -120.3785723 109.59609252 -118.18554688 108.8125 C-116.7919024 108.3196454 -115.3980295 107.82743616 -114.00390625 107.3359375 C-113.34757706 107.10160004 -112.69124786 106.86726257 -112.01502991 106.62582397 C-109.19713013 105.64467005 -107.00947773 105 -104 105 C-105.94947806 100.22975193 -108.12916043 95.8732996 -110.79296875 91.4453125 C-111.31930656 90.56478714 -111.31930656 90.56478714 -111.85627747 89.66647339 C-112.96260074 87.81682977 -114.07462016 85.97070482 -115.1875 84.125 C-116.31030521 82.25742068 -117.43183982 80.38910789 -118.55085754 78.51925659 C-119.55737758 76.83813585 -120.56801539 75.15948255 -121.57885742 73.48095703 C-123 71 -123 71 -123 70 C-110.46 70 -97.92 70 -85 70 C-85.58601888 64.13981123 -86.14611353 58.63414627 -87.19140625 52.8984375 C-87.41376953 51.66738281 -87.63613281 50.43632813 -87.86523438 49.16796875 C-88.09533203 47.91628906 -88.32542969 46.66460937 -88.5625 45.375 C-88.79646484 44.08464844 -89.03042969 42.79429688 -89.27148438 41.46484375 C-89.84416743 38.30924322 -90.42041653 35.15433912 -91 32 C-86.84974938 32.68626191 -83.15652076 33.98594746 -79.23828125 35.50390625 C-78.60641403 35.7466478 -77.97454681 35.98938934 -77.3235321 36.23948669 C-75.31837528 37.01004985 -73.31525746 37.78572396 -71.3125 38.5625 C-69.29894168 39.34260069 -67.28495883 40.12148119 -65.26933289 40.89622498 C-63.44823413 41.59625059 -61.62897677 42.30106095 -59.80981445 43.00610352 C-57.18248331 44.11115854 -57.18248331 44.11115854 -55 44 C-52.69 31.79 -50.38 19.58 -48 7 C-43.18700492 10.60974631 -38.93067237 13.83429209 -34.625 17.875 C-29.6058246 22.50808499 -24.39339301 26.8116384 -19 31 C-14.69551764 26.1976498 -11.94070171 20.59383696 -8.9375 14.9375 C-7.88707243 12.96586921 -6.83379105 10.99575559 -5.77734375 9.02734375 C-5.31577881 8.15843506 -4.85421387 7.28952637 -4.37866211 6.39428711 C-3.06480341 4.11254242 -1.62649207 2.06716874 0 0 Z " fill="#018E99" transform="translate(141,0)"/>
<path d="M0 0 C4.25692642 4.13867846 5.44998317 7.85250325 5.6875 13.6875 C5.56031335 18.61430935 4.49854031 21.36568788 1.25 25.1875 C0.59 26.1775 -0.07 27.1675 -0.75 28.1875 C0.03375 28.93 0.8175 29.6725 1.625 30.4375 C6.00224109 35.02318114 6.70391887 38.37036726 6.56640625 44.5859375 C5.91348563 49.9543959 3.65706847 53.78043153 -0.125 57.5625 C-7.59561577 62.1871669 -16.47363357 62.30354403 -24.96875 60.79296875 C-30.13906374 58.97160823 -33.76765887 54.60458902 -36.75 50.1875 C-37.76378961 47.8010572 -38.26881129 45.75383981 -38.75 43.1875 C-37.75 42.1875 -37.75 42.1875 -35.46484375 42.08984375 C-34.09005859 42.10724609 -34.09005859 42.10724609 -32.6875 42.125 C-31.76839844 42.13402344 -30.84929687 42.14304688 -29.90234375 42.15234375 C-29.19207031 42.16394531 -28.48179687 42.17554688 -27.75 42.1875 C-27.3375 43.13625 -26.925 44.085 -26.5 45.0625 C-24.64427693 48.3762912 -24.15380012 48.92839518 -20.75 50.1875 C-18.26134545 50.46489864 -18.26134545 50.46489864 -15.6875 50.375 C-14.83027344 50.36855469 -13.97304687 50.36210937 -13.08984375 50.35546875 C-10.59522032 50.27340034 -10.59522032 50.27340034 -7.75 49.1875 C-4.8758897 44.05516018 -4.42847694 41.07428452 -5.75 35.1875 C-11.31069582 32.93316386 -16.8285651 32.58788172 -22.75 32.1875 C-22.75 29.2175 -22.75 26.2475 -22.75 23.1875 C-21.84636719 23.06632812 -20.94273437 22.94515625 -20.01171875 22.8203125 C-18.83222656 22.65273437 -17.65273437 22.48515625 -16.4375 22.3125 C-15.26574219 22.15007812 -14.09398437 21.98765625 -12.88671875 21.8203125 C-9.60469105 21.36449379 -9.60469105 21.36449379 -6.75 19.1875 C-5.76507141 15.45884177 -5.4604402 13.05617941 -6.6875 9.375 C-9.63931954 6.24428231 -12.48070242 5.36767219 -16.75 5.1875 C-20.5977021 6.07427616 -20.5977021 6.07427616 -23.75 8.1875 C-24.3996875 9.5178125 -24.3996875 9.5178125 -25.0625 10.875 C-25.619375 11.638125 -26.17625 12.40125 -26.75 13.1875 C-30.11721573 13.63719331 -33.37244104 13.47265976 -36.75 13.1875 C-36.38712186 7.26049033 -34.80187077 3.56851433 -30.75 -0.8125 C-21.39166035 -7.6600656 -9.21606304 -6.07422336 0 0 Z " fill="#52B7BC" transform="translate(235.75,87.8125)"/>
<path d="M0 0 C3.3 0 6.6 0 10 0 C10 18.15 10 36.3 10 55 C13.63 55 17.26 55 21 55 C21 58.3 21 61.6 21 65 C9.78 65 -1.44 65 -13 65 C-13 61.7 -13 58.4 -13 55 C-9.04 55 -5.08 55 -1 55 C-1.33 42.46 -1.66 29.92 -2 17 C-4.64 19.31 -7.28 21.62 -10 24 C-10.99 24.66 -11.98 25.32 -13 26 C-14.5309842 14.04131227 -14.5309842 14.04131227 -10.87890625 9.171875 C-8.34159863 6.94758791 -5.74520031 4.95838699 -3 3 C-2.01 2.01 -1.02 1.02 0 0 Z " fill="#51B4BA" transform="translate(170,84)"/>
<path d="M0 0 C13.86 0 27.72 0 42 0 C42 11.24769489 42 11.24769489 40.015625 15.6796875 C39.36279541 17.17737671 39.36279541 17.17737671 38.69677734 18.70532227 C38.21934082 19.75131592 37.7419043 20.79730957 37.25 21.875 C36.24715784 24.15223896 35.24456301 26.42958685 34.2421875 28.70703125 C33.71463867 29.88861816 33.18708984 31.07020508 32.64355469 32.28759766 C30.93104998 36.13618894 29.27722186 40.00863144 27.6328125 43.88671875 C27.22222595 44.85378754 27.22222595 44.85378754 26.80334473 45.84039307 C26.26034425 47.11956055 25.71745535 48.39877541 25.17468262 49.67803955 C23.89900068 52.68419737 22.62062663 55.68907831 21.3359375 58.69140625 C20.90845215 59.69373291 20.4809668 60.69605957 20.04052734 61.72875977 C19 64 19 64 18 65 C16.31391034 65.07205511 14.62499341 65.08386068 12.9375 65.0625 C11.55884766 65.04896484 11.55884766 65.04896484 10.15234375 65.03515625 C9.08693359 65.01775391 9.08693359 65.01775391 8 65 C8.4674471 58.30314421 10.37321245 53.21403387 13.21875 47.171875 C13.63668823 46.26044739 14.05462646 45.34901978 14.48522949 44.40997314 C15.81320299 41.51844194 17.15582256 38.63402933 18.5 35.75 C19.84150464 32.85054142 21.17986892 29.94968462 22.51477051 27.04718018 C23.34391845 25.24659053 24.17733616 23.44795945 25.01550293 21.65155029 C25.39259399 20.83680237 25.76968506 20.02205444 26.15820312 19.18261719 C26.49049927 18.46950378 26.82279541 17.75639038 27.16516113 17.02166748 C28.17387187 14.71849875 28.17387187 14.71849875 29 11 C19.43 10.67 9.86 10.34 0 10 C0 6.7 0 3.4 0 0 Z " fill="#4DACB2" transform="translate(107,84)"/>
<path d="M0 0 C4.35264363 0.87052873 8.17499243 2.10736497 12.26953125 3.72265625 C12.95053391 3.98759384 13.63153656 4.25253143 14.33317566 4.52549744 C16.49446731 5.36733649 18.65349145 6.21482507 20.8125 7.0625 C22.28305674 7.63644293 23.7537584 8.21001468 25.22460938 8.78320312 C28.81809828 10.18451048 32.40956527 11.59088666 36 13 C27.05891434 21.97627949 17.5657394 30.95617373 7 38 C4.69 25.46 2.38 12.92 0 0 Z " fill="#027E8A" transform="translate(50,32)"/>
<path d="M0 0 C-1.98 11.88 -3.96 23.76 -6 36 C-9.34847433 33.9909154 -12.0091987 32.30143187 -14.92578125 29.85546875 C-15.64056641 29.26056641 -16.35535156 28.66566406 -17.09179688 28.05273438 C-17.82462891 27.43720703 -18.55746094 26.82167969 -19.3125 26.1875 C-24.76142257 21.62481864 -30.26878759 17.20469716 -36 13 C-33.40566886 10.40566886 -30.51879824 9.58420614 -27.12890625 8.3984375 C-26.45077377 8.1571109 -25.7726413 7.9157843 -25.07395935 7.66714478 C-23.64005315 7.15845073 -22.20513183 6.6526104 -20.76928711 6.14941406 C-18.57184571 5.37827963 -16.3785723 4.59609252 -14.18554688 3.8125 C-12.7919024 3.3196454 -11.3980295 2.82743616 -10.00390625 2.3359375 C-9.34757706 2.10160004 -8.69124786 1.86726257 -8.01502991 1.62582397 C-5.19713013 0.64467005 -3.00947773 0 0 0 Z " fill="#025865" transform="translate(37,105)"/>
<path d="M0 0 C12.69045192 -0.18043297 25.32683275 0.37897682 38 1 C34.21133756 8.07643897 30.27012858 15.05279138 26.25 22 C25.76619873 22.83700439 25.28239746 23.67400879 24.78393555 24.53637695 C22.92026325 27.74808487 21.06064728 30.90902908 19 34 C18.64663574 33.34080566 18.29327148 32.68161133 17.92919922 32.00244141 C13.60409987 23.99586707 8.99888864 16.17939209 4.328125 8.37109375 C3.76867187 7.43136719 3.20921875 6.49164063 2.6328125 5.5234375 C2.12637207 4.67700684 1.61993164 3.83057617 1.09814453 2.95849609 C0 1 0 1 0 0 Z " fill="#026B78" transform="translate(18,70)"/>
<path d="M0 0 C0.66 0.33 1.32 0.66 2 1 C3.05028863 4.93534074 3.49954605 8.96268401 4 13 C4.1340625 13.92683594 4.268125 14.85367187 4.40625 15.80859375 C4.63061625 18.44089064 4.67784031 20.44331372 4 23 C1.69139703 25.69430177 -0.89230409 27.33288088 -4 29 C-4.86625 29.474375 -5.7325 29.94875 -6.625 30.4375 C-11.85774695 31.6768348 -16.61029709 29.50220459 -21.375 27.4375 C-22.43460938 26.98246094 -23.49421875 26.52742188 -24.5859375 26.05859375 C-25.38257813 25.70925781 -26.17921875 25.35992187 -27 25 C-25.74507047 21.23521141 -24.16902481 20.30619333 -21.0625 17.875 C-16.31068018 14.08713843 -11.76470752 10.15188031 -7.2890625 6.04296875 C-4.92682154 3.93468885 -2.4886424 1.95661814 0 0 Z " fill="#08D1DC" transform="translate(190,7)"/>
<path d="M0 0 C-1.29979879 18.29979879 -1.29979879 18.29979879 -5.5625 22.5625 C-11.15991434 24.9032369 -16.23642043 24.77449747 -22 22.9375 C-26.9444535 20.88395681 -30.9431916 17.42762747 -35 14 C-32.36059674 10.7816042 -29.30787923 9.74884167 -25.46875 8.30078125 C-24.83642456 8.0608696 -24.20409912 7.82095795 -23.5526123 7.57377625 C-22.21932072 7.06994595 -20.88452095 6.57009102 -19.54833984 6.07397461 C-17.50358766 5.31383372 -15.4645099 4.53980393 -13.42578125 3.76367188 C-3.4255222 0 -3.4255222 0 0 0 Z " fill="#09E8F2" transform="translate(233,32)"/>
<path d="M0 0 C3.91689852 2.7704892 7.02064235 5.18692704 8.5625 9.8125 C8.92881844 15.39885614 8.79482115 19.01974794 5.5625 23.8125 C1.4625 26.8125 1.4625 26.8125 -1.4375 26.8125 C-1.4375 27.8025 -1.4375 28.7925 -1.4375 29.8125 C-0.715625 29.85375 0.00625 29.895 0.75 29.9375 C4.8310215 31.20715113 6.04781026 33.38972785 8.5625 36.8125 C10.16339019 40.01428039 9.9198266 43.33018987 9.5625 46.8125 C7.8484023 51.50371475 5.77395807 54.13248123 1.5625 56.8125 C-4.55774059 59.21259435 -11.36027524 60.10630202 -17.71484375 58.08984375 C-21.99190104 56.12255669 -24.9232786 53.89810978 -27.4375 49.8125 C-27.4375 48.8225 -27.4375 47.8325 -27.4375 46.8125 C-22.5940954 47.22764897 -20.62162171 49.27458699 -17.4375 52.8125 C-15.58807253 54.66192747 -12.73323569 54.0716876 -10.25 54.125 C-4.55899921 54.07507894 -1.48720693 53.86220693 2.5625 49.8125 C4.67113429 46.17031349 5.07212203 42.97441328 4.5625 38.8125 C2.41176489 34.81827764 0.77465695 32.48231936 -3.4375 30.8125 C-6.02282701 30.36185368 -6.02282701 30.36185368 -8.6875 30.1875 C-9.57953125 30.11273438 -10.4715625 30.03796875 -11.390625 29.9609375 C-12.40382812 29.88746094 -12.40382812 29.88746094 -13.4375 29.8125 C-13.4375 28.8225 -13.4375 27.8325 -13.4375 26.8125 C-12.68984375 26.69132812 -11.9421875 26.57015625 -11.171875 26.4453125 C-10.18703125 26.27773437 -9.2021875 26.11015625 -8.1875 25.9375 C-7.21296875 25.77507812 -6.2384375 25.61265625 -5.234375 25.4453125 C-1.89072535 24.68878842 0.6856936 23.95234833 2.8125 21.1875 C4.27332264 16.56156164 4.21328513 12.43946281 2.4375 8 C-0.33914609 4.76057957 -3.13098499 3.14857903 -7.39453125 2.52734375 C-12.09838631 2.32048206 -15.4571792 3.1280976 -19.4375 5.8125 C-20.44318242 7.47574401 -21.44414799 9.14186253 -22.4375 10.8125 C-23.7575 10.8125 -25.0775 10.8125 -26.4375 10.8125 C-25.9346962 6.45486704 -23.38448863 3.89344266 -20.4375 0.8125 C-14.13452645 -2.36573963 -6.59022782 -2.27662416 0 0 Z " fill="#061322" transform="translate(229.4375,87.1875)"/>
<path d="M0 0 C0.33 2.64 0.66 5.28 1 8 C1.99 7.34 2.98 6.68 4 6 C7.97833499 6.14466673 10.25731996 6.39412944 13.375 8.9375 C15.98727841 12.25308414 16.33162215 14.65038741 16.29296875 18.89453125 C15.8224574 22.27593947 14.13740472 24.42254136 12 27 C8.98675805 28.50662097 6.31713623 28.17770373 3 28 C2.34 27.34 1.68 26.68 1 26 C0.67 26.66 0.34 27.32 0 28 C-1.99954746 28.04254356 -4.00041636 28.04080783 -6 28 C-7 27 -7 27 -7.11352539 24.40795898 C-7.10828857 23.28204346 -7.10305176 22.15612793 -7.09765625 20.99609375 C-7.09443359 19.78115234 -7.09121094 18.56621094 -7.08789062 17.31445312 C-7.07951172 16.03505859 -7.07113281 14.75566406 -7.0625 13.4375 C-7.05798828 12.15423828 -7.05347656 10.87097656 -7.04882812 9.54882812 C-7.03699545 6.36583978 -7.02051068 3.18294238 -7 0 C-4.3333581 -1.33332095 -2.83319697 -0.67102033 0 0 Z M3 12 C1.14697958 13.69276643 1.14697958 13.69276643 0 16 C0.26504879 19.00388632 0.83304275 19.83304275 3 22 C5.60280568 21.67958603 5.60280568 21.67958603 8 21 C8.76716851 18.14921909 8.76716851 18.14921909 9 15 C7.87359395 13.03959519 7.87359395 13.03959519 6 12 C5.01 12 4.02 12 3 12 Z " fill="#19B0C6" transform="translate(167,159)"/>
<path d="M0 0 C3.99055234 1.48667636 5.30752215 3.63587809 7.3125 7.3125 C7.84488281 8.25738281 8.37726563 9.20226563 8.92578125 10.17578125 C10.20894138 13.54932589 10.37573724 14.66687192 9 18 C7.08548359 20.49460477 4.92914305 22.67473365 2.6875 24.875 C2.10548828 25.48085938 1.52347656 26.08671875 0.92382812 26.7109375 C0.35470703 27.278125 -0.21441406 27.8453125 -0.80078125 28.4296875 C-1.31809814 28.94772949 -1.83541504 29.46577148 -2.3684082 29.99951172 C-4 31 -4 31 -6.04370117 30.63330078 C-6.68927979 30.42431152 -7.3348584 30.21532227 -8 30 C-9.67422986 30.29299023 -11.34178227 30.62690101 -13 31 C-14.32 31 -15.64 31 -17 31 C-14.85195346 25.36682531 -11.95451091 20.21602169 -9.0625 14.9375 C-8.52431641 13.94427734 -7.98613281 12.95105469 -7.43164062 11.92773438 C-6.90892578 10.97060547 -6.38621094 10.01347656 -5.84765625 9.02734375 C-5.37336182 8.15843506 -4.89906738 7.28952637 -4.41040039 6.39428711 C-3.07462275 4.12667913 -1.622661 2.06915497 0 0 Z " fill="#05B6C0" transform="translate(141,0)"/>
<path d="M0 0 C3.68623011 1.61272567 4.75355 2.630325 7 6 C7 6.99 7 7.98 7 9 C3.625 9.125 3.625 9.125 0 9 C-0.66 8.34 -1.32 7.68 -2 7 C-5.5 6.58333333 -5.5 6.58333333 -9 7 C-11.32749345 10.49124017 -11.50299316 11.89222251 -11 16 C-9.45714369 18.54331238 -9.45714369 18.54331238 -7 20 C-3.60845705 19.83849795 -2.41703243 19.41703243 0 17 C3.625 16.875 3.625 16.875 7 17 C6.70540991 20.53508103 6.25118587 21.76203444 3.625 24.25 C-0.6413236 27.09421573 -3.93952298 27.42170642 -9 27 C-13.33295158 25.52608614 -15.55841701 23.70377289 -18 19.8125 C-19.2111839 15.19486139 -19.27700229 11.59893393 -18 7 C-13.55613616 -0.20212416 -7.94268179 -0.84962236 0 0 Z " fill="#07C6D1" transform="translate(125,160)"/>
<path d="M0 0 C0 18.15 0 36.3 0 55 C3.63 55 7.26 55 11 55 C11 55.99 11 56.98 11 58 C2.09 58 -6.82 58 -16 58 C-16 57.01 -16 56.02 -16 55 C-12.04 55 -8.08 55 -4 55 C-4 38.83 -4 22.66 -4 6 C-8.57447048 8.73802922 -8.57447048 8.73802922 -12.1875 12.1875 C-13.5796875 13.5796875 -13.5796875 13.5796875 -15 15 C-15.66 15 -16.32 15 -17 15 C-16.54428464 10.22788627 -14.63832521 8.04315324 -11.3125 4.6875 C-10.46300781 3.80449219 -9.61351562 2.92148438 -8.73828125 2.01171875 C-6 0 -6 0 0 0 Z " fill="#061221" transform="translate(177,87)"/>
<path d="M0 0 C2.31 0 4.62 0 7 0 C7.64834654 1.269553 8.29357815 2.54069706 8.9375 3.8125 C9.29714844 4.52019531 9.65679687 5.22789062 10.02734375 5.95703125 C11 8 11 8 12 11 C13.65 7.37 15.3 3.74 17 0 C19.31 0 21.62 0 24 0 C21.72578162 7.24576554 18.88273904 14.12051872 15.8125 21.0625 C15.34908203 22.11888672 14.88566406 23.17527344 14.40820312 24.26367188 C13.2756523 26.84401964 12.13952397 29.42272601 11 32 C8.69 32 6.38 32 4 32 C6 26 6 26 7.3125 23.3671875 C8.33402923 18.36401593 6.34235851 15.19906885 4.125 10.75 C3.35404249 9.14193021 2.58567973 7.53261301 1.8203125 5.921875 C1.47242676 5.21643555 1.12454102 4.51099609 0.76611328 3.78417969 C0 2 0 2 0 0 Z " fill="#11BDCE" transform="translate(134,165)"/>
<path d="M0 0 C11.55 0 23.1 0 35 0 C35 7.87516555 35 7.87516555 33.62646484 10.98486328 C33.17501602 12.03228195 33.17501602 12.03228195 32.71444702 13.1008606 C32.38328888 13.83327972 32.05213074 14.56569885 31.7109375 15.3203125 C31.37003082 16.10082977 31.02912415 16.88134705 30.67788696 17.68551636 C29.58882905 20.17078488 28.48217217 22.64775664 27.375 25.125 C26.65380057 26.76512096 25.93373827 28.40574245 25.21484375 30.046875 C21.24640725 39.07902832 17.17420324 48.06099882 13 57 C11.68 57 10.36 57 9 57 C9.58012639 53.6466956 10.40180427 50.7756181 11.82592773 47.68798828 C12.38672279 46.46113815 12.38672279 46.46113815 12.95884705 45.20950317 C13.36301346 44.33857025 13.76717987 43.46763733 14.18359375 42.5703125 C14.59916031 41.66175507 15.01472687 40.75319763 15.44288635 39.81710815 C16.76941429 36.91740976 18.10266104 34.02088102 19.4375 31.125 C21.19190981 27.31769255 22.93962922 23.50741375 24.68359375 19.6953125 C25.08573593 18.82842804 25.48787811 17.96154358 25.90220642 17.06838989 C26.27922195 16.24418549 26.65623749 15.41998108 27.04467773 14.57080078 C27.37475327 13.8553006 27.7048288 13.13980042 28.04490662 12.40261841 C29.25853064 9.34964426 30.09744453 6.15894414 31 3 C20.77 3 10.54 3 0 3 C0 2.01 0 1.02 0 0 Z " fill="#040D1D" transform="translate(110,88)"/>
<path d="M0 0 C2.04499299 3.10838934 2.35410133 5.69329008 2.5625 9.375 C1.5625 10.375 1.5625 10.375 -1.59765625 10.47265625 C-3.52931641 10.45525391 -3.52931641 10.45525391 -5.5 10.4375 C-6.79035156 10.42847656 -8.08070313 10.41945312 -9.41015625 10.41015625 C-10.40917969 10.39855469 -11.40820312 10.38695312 -12.4375 10.375 C-11.05347914 11.93097272 -11.05347914 11.93097272 -9.4375 13.375 C-7.58483927 13.08014846 -7.58483927 13.08014846 -5.4375 12.375 C-3.10449067 12.33611651 -0.77040199 12.3301365 1.5625 12.375 C0.16292311 15.75731081 -1.16814421 17.65428642 -4.4375 19.375 C-9.08280178 19.89114464 -11.28101295 20.05380761 -15.3125 17.6875 C-18.64359782 14.06248179 -19.48900341 11.8170954 -19.3125 6.875 C-18.34852283 3.01909131 -17.27471285 1.13114963 -14.4375 -1.625 C-10.01671875 -3.83539063 -3.95048261 -2.63365507 0 0 Z M-10.4375 3.375 C-11.4275 4.86 -11.4275 4.86 -12.4375 6.375 C-9.7975 6.375 -7.1575 6.375 -4.4375 6.375 C-4.7675 5.385 -5.0975 4.395 -5.4375 3.375 C-7.85369823 3.12469023 -7.85369823 3.12469023 -10.4375 3.375 Z " fill="#3799C4" transform="translate(265.4375,167.625)"/>
<path d="M0 0 C3.67243106 3.21337718 4.67118229 6.1773402 5 11 C4 12 4 12 0.83984375 12.09765625 C-1.09181641 12.08025391 -1.09181641 12.08025391 -3.0625 12.0625 C-4.35285156 12.05347656 -5.64320313 12.04445312 -6.97265625 12.03515625 C-7.97167969 12.02355469 -8.97070312 12.01195312 -10 12 C-9.01 13.485 -9.01 13.485 -8 15 C-7.319375 14.835 -6.63875 14.67 -5.9375 14.5 C-2.5835178 13.92910941 0.60389805 13.93340977 4 14 C2.19587357 17.26460973 1.16605307 18.88929795 -2 21 C-6.97509769 21.57091285 -9.03725016 21.54264082 -13.4375 19.0625 C-16.73944556 15.11627238 -17.39739708 12.08298586 -17 7 C-15.7478671 3.8001048 -14.42991714 2.37933865 -11.875 0.125 C-7.73164457 -1.49631299 -4.24078439 -1.29205207 0 0 Z M-9 5 C-9.33 5.99 -9.66 6.98 -10 8 C-7.36 8 -4.72 8 -2 8 C-2.66 7.01 -3.32 6.02 -4 5 C-6.58380177 4.74969023 -6.58380177 4.74969023 -9 5 Z " fill="#22ABC8" transform="translate(202,166)"/>
<path d="M0 0 C2.31 0 4.62 0 7 0 C7.33 4.62 7.66 9.24 8 14 C10.97 14.495 10.97 14.495 14 15 C14.33 10.05 14.66 5.1 15 0 C16.98 0 18.96 0 21 0 C21 6.93 21 13.86 21 21 C19.02 21 17.04 21 15 21 C15 20.34 15 19.68 15 19 C14.46375 19.33 13.9275 19.66 13.375 20 C10.32806078 21.28292178 8.27967299 21.40995912 5 21 C2.69724444 19.1329009 1.32176129 17.64352259 0 15 C-0.0716735 12.44842345 -0.09308442 9.92527029 -0.0625 7.375 C-0.05798828 6.66859375 -0.05347656 5.9621875 -0.04882812 5.234375 C-0.03703875 3.48954725 -0.01910324 1.744763 0 0 Z " fill="#4A8FC7" transform="translate(294,166)"/>
<path d="M0 0 C2.31 0 4.62 0 7 0 C8.32 3.3 9.64 6.6 11 10 C11.66 10 12.32 10 13 10 C14.32 6.7 15.64 3.4 17 0 C18.98 0 20.96 0 23 0 C20.83146291 6.7688441 18.41350843 13.41035112 15.75 20 C15.39292969 20.95261719 15.03585937 21.90523437 14.66796875 22.88671875 C13.61014687 25.47045792 12.63235171 27.73374783 11 30 C7.203125 31.125 7.203125 31.125 4 31 C5.875 25.25 5.875 25.25 7 23 C7.61858706 17.34680163 5.72017574 13.1825432 3.5 8.125 C3.16613281 7.34125 2.83226562 6.5575 2.48828125 5.75 C1.66843438 3.82921591 0.83551839 1.91401918 0 0 Z " fill="#24698F" transform="translate(361,166)"/>
<path d="M0 0 C2 1.375 2 1.375 3 3 C3 3.99 3 4.98 3 6 C-0.34252724 6.07427838 -2.8035914 6.06546953 -6 5 C-6.33 5.66 -6.66 6.32 -7 7 C-6.37351563 7.15855469 -5.74703125 7.31710938 -5.1015625 7.48046875 C1.54079058 9.37678722 1.54079058 9.37678722 3.75 12.375 C4.08148039 15.85554414 3.11594075 17.27950475 1 20 C-2.20417721 21.6020886 -5.52339432 21.49285215 -9 21 C-12.44312714 18.8755173 -13.71617547 17.85147359 -15 14 C-10.45194365 13.82164485 -7.1205746 14.00214565 -3 16 C-4.35747836 13.28504328 -5.68062516 13.29838899 -8.5 12.3125 C-10.953125 11.2734375 -10.953125 11.2734375 -13 10 C-14.25 6.4375 -14.25 6.4375 -14 3 C-10.65197624 -2.02203565 -5.20891859 -1.23711817 0 0 Z " fill="#31A3C9" transform="translate(240,166)"/>
<path d="M0 0 C2.18625592 1.83582734 3.39023021 3.58534531 5 6 C5 6.33 5 6.66 5 7 C2.66705225 7.04241723 0.33297433 7.04092937 -2 7 C-2.33 6.67 -2.66 6.34 -3 6 C-4.66617115 5.95936168 -6.33388095 5.957279 -8 6 C-8 8.64 -8 11.28 -8 14 C-6.33388095 14.042721 -4.66617115 14.04063832 -3 14 C-2.67 13.67 -2.34 13.34 -2 13 C0.33297433 12.95907063 2.66705225 12.95758277 5 13 C2.59433962 18.53301887 2.59433962 18.53301887 0.25 20.375 C-4.09254871 21.58126353 -7.67916412 21.58703817 -11.8125 19.75 C-15.53647497 16.77082002 -15.90047843 14.88147674 -16.4375 10.125 C-16.3646122 6.87541908 -15.71798257 5.10060322 -13.6875 2.5625 C-9.51352096 -1.41734048 -5.41027584 -1.75781336 0 0 Z " fill="#4196C8" transform="translate(286,166)"/>
<path d="M0 0 C0.33 0 0.66 0 1 0 C1.49117813 3.45189075 1.67169209 6.56462822 1 10 C-1.27136252 12.73005616 -3.89155381 14.3324784 -7 16 C-7.86625 16.474375 -8.7325 16.94875 -9.625 17.4375 C-14.85774695 18.6768348 -19.61029709 16.50220459 -24.375 14.4375 C-25.43460938 13.98246094 -26.49421875 13.52742188 -27.5859375 13.05859375 C-28.38257813 12.70925781 -29.17921875 12.35992187 -30 12 C-28.84906278 8.54718834 -27.6794007 7.61917837 -24.9375 5.3125 C-24.20402344 4.68988281 -23.47054687 4.06726563 -22.71484375 3.42578125 C-22.14894531 2.95527344 -21.58304688 2.48476563 -21 2 C-20.34 2.33 -19.68 2.66 -19 3 C-20.32 4.32 -21.64 5.64 -23 7 C-18.36784746 7.90208263 -18.36784746 7.90208263 -13.75 7.4375 C-13.1725 7.293125 -12.595 7.14875 -12 7 C-11.01 7.66 -10.02 8.32 -9 9 C-8.51789063 8.566875 -8.03578125 8.13375 -7.5390625 7.6875 C-6.90742188 7.130625 -6.27578125 6.57375 -5.625 6 C-4.99851563 5.443125 -4.37203125 4.88625 -3.7265625 4.3125 C-2 3 -2 3 0 3 C0 2.01 0 1.02 0 0 Z " fill="#01ACB7" transform="translate(193,20)"/>
<path d="M0 0 C0.66 0.66 1.32 1.32 2 2 C1.57702637 2.98693848 1.15405273 3.97387695 0.71826172 4.99072266 C0.29684402 5.97403061 0.29684402 5.97403061 -0.13308716 6.97720337 C-1.44842529 10.04632568 -2.76376343 13.115448 -4.07910156 16.18457031 C-4.42424805 16.98991211 -4.76939453 17.79525391 -5.125 18.625 C-5.45951172 19.40552734 -5.79402344 20.18605469 -6.13867188 20.99023438 C-6.805683 22.54659368 -7.47265496 24.10296977 -8.1395874 25.65936279 C-8.80060926 27.20153047 -9.46194447 28.74356388 -10.12359619 30.28546143 C-11.68838811 33.93300026 -13.24857666 37.58231679 -14.79589844 41.23730469 C-15.07287567 41.88960052 -15.34985291 42.54189636 -15.63522339 43.21395874 C-16.38071555 44.97054595 -17.12379258 46.72815758 -17.86669922 48.48583984 C-19 51 -19 51 -20 52 C-21.68608966 52.07205511 -23.37500659 52.08386068 -25.0625 52.0625 C-25.98160156 52.05347656 -26.90070313 52.04445312 -27.84765625 52.03515625 C-28.55792969 52.02355469 -29.26820312 52.01195312 -30 52 C-30 50.35 -30 48.7 -30 47 C-26.71023192 45.90341064 -25.28696233 46.20046862 -22 47 C-21.77893585 46.48270325 -21.5578717 45.96540649 -21.33010864 45.43243408 C-19.0280143 40.04612598 -16.72421776 34.66054829 -14.41943359 29.27539062 C-13.55962187 27.2658118 -12.70024362 25.25604745 -11.84130859 23.24609375 C-10.60628484 20.35628094 -9.36970127 17.46713996 -8.1328125 14.578125 C-7.74940704 13.68007141 -7.36600159 12.78201782 -6.97097778 11.85675049 C-6.43064407 10.5958963 -6.43064407 10.5958963 -5.87939453 9.30957031 C-5.56406769 8.57232727 -5.24874084 7.83508423 -4.92385864 7.07550049 C-2.28233425 1.14116713 -2.28233425 1.14116713 0 0 Z " fill="#50B3B9" transform="translate(145,97)"/>
<path d="M0 0 C0.33 0.825 0.66 1.65 1 2.5 C3.37363998 5.46704997 4.10147383 5.48972633 7.75 5.9375 C12.31967059 6.18432892 15.72484064 5.57046671 20 4 C20.99 3.67 21.98 3.34 23 3 C22.83383414 7.32031241 22.65309479 9.36323258 19.5 12.4375 C13.89730681 14.93870232 8.82184489 14.79306809 3 12.9375 C-1.9444535 10.88395681 -5.9431916 7.42762747 -10 4 C-7.25904945 1.09123615 -4.04082286 -2.02041143 0 0 Z " fill="#00D4DB" transform="translate(208,42)"/>
<path d="M0 0 C1.98 0 3.96 0 6 0 C6.33 1.65 6.66 3.3 7 5 C7.99 5.33 8.98 5.66 10 6 C10 7.65 10 9.3 10 11 C8.68 11 7.36 11 6 11 C6.33 13.97 6.66 16.94 7 20 C7.99 20.33 8.98 20.66 10 21 C10 22.98 10 24.96 10 27 C3.58718861 26.39501779 3.58718861 26.39501779 1.28125 24.84375 C-0.58656195 22.15592305 -0.29168686 20.04229255 -0.1875 16.8125 C-0.16042969 15.72582031 -0.13335937 14.63914063 -0.10546875 13.51953125 C-0.07066406 12.68808594 -0.03585937 11.85664063 0 11 C-0.99 11 -1.98 11 -3 11 C-3 9.35 -3 7.7 -3 6 C-2.34 5.67 -1.68 5.34 -1 5 C-0.34444881 2.47266765 -0.34444881 2.47266765 0 0 Z " fill="#3F79AC" transform="translate(349,160)"/>
<path d="M0 0 C2.67145537 -0.80161791 2.67145537 -0.80161791 5 -2 C5 0.31 5 2.62 5 5 C3.02 5.33 1.04 5.66 -1 6 C-0.98839844 6.92683594 -0.97679687 7.85367188 -0.96484375 8.80859375 C-0.95582031 10.00613281 -0.94679687 11.20367187 -0.9375 12.4375 C-0.92589844 13.63246094 -0.91429687 14.82742187 -0.90234375 16.05859375 C-1 19 -1 19 -2 20 C-3.98 20 -5.96 20 -8 20 C-8 13.07 -8 6.14 -8 -1 C-3 -2 -3 -2 0 0 Z " fill="#29A8C9" transform="translate(218,167)"/>
<path d="M0 0 C0 2.31 0 4.62 0 7 C-1.98 7.33 -3.96 7.66 -6 8 C-6.33 12.62 -6.66 17.24 -7 22 C-8.98 22 -10.96 22 -13 22 C-13 15.07 -13 8.14 -13 1 C-10 1 -7 1 -4 1 C-1 0 -1 0 0 0 Z " fill="#538CCA" transform="translate(333,165)"/>
<path d="M0 0 C2.31 0 4.62 0 7 0 C7 6.93 7 13.86 7 21 C5.02 21 3.04 21 1 21 C0 20 0 20 -0.11352539 18.05053711 C-0.10567017 16.8015564 -0.10567017 16.8015564 -0.09765625 15.52734375 C-0.09443359 14.62822266 -0.09121094 13.72910156 -0.08789062 12.80273438 C-0.07951172 11.85720703 -0.07113281 10.91167969 -0.0625 9.9375 C-0.05798828 8.98810547 -0.05347656 8.03871094 -0.04882812 7.06054688 C-0.0370011 4.70696935 -0.02052025 2.35351523 0 0 Z " fill="#4878AF" transform="translate(336,166)"/>
<path d="M0 0 C2.0625 2.25 2.0625 2.25 4 5 C3.67650127 8.42082699 2.22116121 10.26243203 -0.125 12.6875 C-0.68445313 13.28949219 -1.24390625 13.89148438 -1.8203125 14.51171875 C-6.80640682 17.9162025 -13.59437273 17.1319974 -19.4375 17.0625 C-20.16904297 17.05798828 -20.90058594 17.05347656 -21.65429688 17.04882812 C-23.43623419 17.03718148 -25.21812863 17.01925191 -27 17 C-26.67 16.34 -26.34 15.68 -26 15 C-22.66666667 15 -19.33333333 15 -16 15 C-11.9453798 13.54759874 -9.25534119 10.51689944 -6.3125 7.5 C-5.81427734 7.00113281 -5.31605469 6.50226562 -4.80273438 5.98828125 C-2.06240704 3.24846654 -2.06240704 3.24846654 0 0 Z " fill="#00919D" transform="translate(151,15)"/>
<path d="M0 0 C7 0 7 0 10 1 C10.65239787 4.11701203 11.11015425 6.48594685 10.4375 9.625 C9.91138029 12.48107843 10.48169778 13.58857883 12 16 C10.68 16 9.36 16 8 16 C5.75 13.5 5.75 13.5 4 11 C3.67 12.65 3.34 14.3 3 16 C2.01 16 1.02 16 0 16 C0 10.72 0 5.44 0 0 Z M4 4 C4 4.99 4 5.98 4 7 C4.99 6.67 5.98 6.34 7 6 C7 5.34 7 4.68 7 4 C6.01 4 5.02 4 4 4 Z " fill="#209FBC" transform="translate(134,201)"/>
<path d="M0 0 C-0.66 3.63 -1.32 7.26 -2 11 C-7.43741374 12.35935344 -10.25184758 10.70071086 -15 8 C-17.47953141 6.14035144 -19.77014037 4.15099 -22 2 C-19 2 -19 2 -17.09375 2.484375 C-13.42864355 3.38697584 -9.74331413 3.41362587 -6 3 C-1.125 0 -1.125 0 0 0 Z " fill="#019AA7" transform="translate(230,52)"/>
<path d="M0 0 C0.66 0.33 1.32 0.66 2 1 C0.68 2.32 -0.64 3.64 -2 5 C2.06756833 5.70400221 5.03020896 6.02920508 9 5 C9.66 5.66 10.32 6.32 11 7 C8.01036252 10.89952715 4.98747008 11.991976 0.328125 12.89453125 C-3.42372344 13.06449754 -5.74865324 11.79861736 -9 10 C-7.84906278 6.54718834 -6.6794007 5.61917837 -3.9375 3.3125 C-2.83728516 2.37857422 -2.83728516 2.37857422 -1.71484375 1.42578125 C-1.14894531 0.95527344 -0.58304688 0.48476563 0 0 Z " fill="#00C5CC" transform="translate(172,22)"/>
<path d="M0 0 C0.99 0 1.98 0 3 0 C3.99 3.3 4.98 6.6 6 10 C6.66 10 7.32 10 8 10 C8.99 6.7 9.98 3.4 11 0 C11.99 0 12.98 0 14 0 C12.90301833 5.69139902 11.45946923 10.74567937 9 16 C7.35 15.67 5.7 15.34 4 15 C3.32779649 13.06441401 2.66241923 11.12645628 2 9.1875 C1.62875 8.10855469 1.2575 7.02960938 0.875 5.91796875 C0 3 0 3 0 0 Z " fill="#3195BB" transform="translate(147,201)"/>
<path d="M0 0 C2.05078125 0.03255208 4.1015625 0.06510417 6.15234375 0.09765625 C6.15234375 1.08765625 6.15234375 2.07765625 6.15234375 3.09765625 C4.50234375 3.09765625 2.85234375 3.09765625 1.15234375 3.09765625 C1.15234375 4.41765625 1.15234375 5.73765625 1.15234375 7.09765625 C2.80234375 7.09765625 4.45234375 7.09765625 6.15234375 7.09765625 C6.15234375 7.75765625 6.15234375 8.41765625 6.15234375 9.09765625 C4.50234375 9.09765625 2.85234375 9.09765625 1.15234375 9.09765625 C1.15234375 10.74765625 1.15234375 12.39765625 1.15234375 14.09765625 C2.80234375 14.09765625 4.45234375 14.09765625 6.15234375 14.09765625 C6.15234375 14.75765625 6.15234375 15.41765625 6.15234375 16.09765625 C3.18234375 16.09765625 0.21234375 16.09765625 -2.84765625 16.09765625 C-2.8745072 13.61841824 -2.89442172 11.13946785 -2.91015625 8.66015625 C-2.92272461 7.59958008 -2.92272461 7.59958008 -2.93554688 6.51757812 C-2.94419213 4.71072066 -2.89985636 2.90378022 -2.84765625 1.09765625 C-1.84765625 0.09765625 -1.84765625 0.09765625 0 0 Z " fill="#4877AD" transform="translate(187.84765625,200.90234375)"/>
<path d="M0 0 C2.97 0 5.94 0 9 0 C9 0.99 9 1.98 9 3 C8.195625 3.12375 7.39125 3.2475 6.5625 3.375 C5.2940625 3.684375 5.2940625 3.684375 4 4 C3.67 4.66 3.34 5.32 3 6 C4.65 6 6.3 6 8 6 C8.33 6.99 8.66 7.98 9 9 C7.35 9.33 5.7 9.66 4 10 C4 10.99 4 11.98 4 13 C5.65 13.33 7.3 13.66 9 14 C9 14.66 9 15.32 9 16 C6.03 16 3.06 16 0 16 C0 10.72 0 5.44 0 0 Z " fill="#14B1C4" transform="translate(121,201)"/>
<path d="M0 0 C-0.33 0.99 -0.66 1.98 -1 3 C-2.65 3 -4.3 3 -6 3 C-4.06745228 5.0245738 -2.36841312 6.42105792 0 8 C0.1875 11.125 0.1875 11.125 0 14 C-3.21451269 15.60725635 -6.43612536 15.05748185 -10 15 C-10 14.01 -10 13.02 -10 12 C-8.02 12 -6.04 12 -4 12 C-4 11.34 -4 10.68 -4 10 C-5.63631892 8.95107762 -7.30485863 7.95093297 -9 7 C-10 6 -10 6 -10.25 3.5625 C-10.1675 2.716875 -10.085 1.87125 -10 1 C-6.1496895 -1.56687367 -4.41430237 -0.83288724 0 0 Z " fill="#0BB0BF" transform="translate(118,202)"/>
<path d="M0 0 C-0.33 0.99 -0.66 1.98 -1 3 C-2.2065625 2.9690625 -2.2065625 2.9690625 -3.4375 2.9375 C-5.93354885 2.70366379 -5.93354885 2.70366379 -7 4 C-7.04092937 6.33297433 -7.04241723 8.66705225 -7 11 C-3.52852158 11.74957157 -3.52852158 11.74957157 0 12 C0 12.99 0 13.98 0 15 C-3.051 15.28783019 -5.95681985 15.41473429 -9 15 C-11.41108026 12.73074799 -11.94764352 11.28148706 -12.08203125 7.9921875 C-11.86291724 4.78246342 -11.37907932 2.48113913 -9.375 -0.0625 C-6.0138415 -1.38927309 -3.474204 -0.73492777 0 0 Z " fill="#4083B5" transform="translate(182,202)"/>
<path d="M0 0 C0 0.66 0 1.32 0 2 C-1.98 2.33 -3.96 2.66 -6 3 C-4.06745228 5.0245738 -2.36841312 6.42105792 0 8 C0.3125 10.5 0.3125 10.5 0 13 C-2 15 -2 15 -3.9453125 15.1953125 C-5.96354167 15.13020833 -7.98177083 15.06510417 -10 15 C-10 14.01 -10 13.02 -10 12 C-8.02 12 -6.04 12 -4 12 C-4 11.34 -4 10.68 -4 10 C-5.96147874 8.61061923 -7.96166576 7.2739589 -10 6 C-9.67 4.02 -9.34 2.04 -9 0 C-5.52176885 -1.15941038 -3.54104422 -0.70820884 0 0 Z " fill="#2A668F" transform="translate(207,202)"/>
<path d="M0 0 C0.33 0 0.66 0 1 0 C1.63019694 8.19256018 1.63019694 8.19256018 -1 11.5625 C-1.66 12.036875 -2.32 12.51125 -3 13 C-3.99 12.67 -4.98 12.34 -6 12 C-6.66 12.165 -7.32 12.33 -8 12.5 C-10 13 -10 13 -13 12 C-12.67 11.01 -12.34 10.02 -12 9 C-10.00458132 8.31974363 -8.00382009 7.65509503 -6 7 C-1.99975192 4.27138315 -1.99975192 4.27138315 0 0 Z " fill="#0195A2" transform="translate(194,27)"/>
<path d="M0 0 C0.66 0 1.32 0 2 0 C1.83383414 4.32031241 1.65309479 6.36323258 -1.5 9.4375 C-5.81553918 11.36407999 -9.34096446 11.56840234 -14 11 C-14.66 10.67 -15.32 10.34 -16 10 C-15.67 9.34 -15.34 8.68 -15 8 C-13.0390625 7.4375 -13.0390625 7.4375 -10.625 7 C-6.54178216 6.2551785 -4.00004772 5.3600649 -1.4375 1.875 C-0.963125 1.25625 -0.48875 0.6375 0 0 Z " fill="#00C9D1" transform="translate(229,45)"/>
<path d="M0 0 C0.99 0.33 1.98 0.66 3 1 C3 5.95 3 10.9 3 16 C1.68 16 0.36 16 -1 16 C-1.02685095 13.52076199 -1.04676547 11.0418116 -1.0625 8.5625 C-1.07506836 7.50192383 -1.07506836 7.50192383 -1.08789062 6.41992188 C-1.09653588 4.61306441 -1.05220011 2.80612397 -1 1 C-0.67 0.67 -0.34 0.34 0 0 Z " fill="#3484AF" transform="translate(164,201)"/>
<path d="M0 0 C0.33 0 0.66 0 1 0 C1.04898438 0.78246094 1.09796875 1.56492188 1.1484375 2.37109375 C1.22320312 3.38300781 1.29796875 4.39492188 1.375 5.4375 C1.44460937 6.44683594 1.51421875 7.45617188 1.5859375 8.49609375 C1.72257813 9.32238281 1.85921875 10.14867187 2 11 C2.66 11.33 3.32 11.66 4 12 C-1.45479185 11.43179252 -5.91059256 10.05362055 -11 8 C-9.1875 6.4375 -9.1875 6.4375 -7 5 C-6.01 5.33 -5.02 5.66 -4 6 C-1.7522025 3.94766315 -0.9977758 2.99332739 0 0 Z " fill="#017886" transform="translate(195,33)"/>
<path d="M0 0 C-0.33 1.65 -0.66 3.3 -1 5 C-12.64480537 7.65784556 -12.64480537 7.65784556 -17.125 5.8125 C-20 4 -20 4 -22 1 C-20.5459375 1.495 -20.5459375 1.495 -19.0625 2 C-14.72411152 3.22568292 -10.47965765 3.59902399 -6 3 C-1.125 0 -1.125 0 0 0 Z " fill="#01AFBA" transform="translate(230,52)"/>
<path d="M0 0 C0.33 0 0.66 0 1 0 C1.52849741 5.28497409 1.52849741 5.28497409 1 8 C-2 10.5 -2 10.5 -5 12 C-6.32 11.34 -7.64 10.68 -9 10 C-6.19195732 7.03595495 -3.81684226 4.55500981 0 3 C0 2.01 0 1.02 0 0 Z M-11 10 C-10.34 10.33 -9.68 10.66 -9 11 C-9.99 11 -10.98 11 -12 11 C-11.67 10.67 -11.34 10.34 -11 10 Z " fill="#00B4BC" transform="translate(193,20)"/>
<path d="M0 0 C0.99 0 1.98 0 3 0 C3.19335938 0.71027344 3.38671875 1.42054688 3.5859375 2.15234375 C3.84632813 3.07144531 4.10671875 3.99054688 4.375 4.9375 C4.63023437 5.85402344 4.88546875 6.77054688 5.1484375 7.71484375 C5.76660104 10.16745087 5.76660104 10.16745087 8 11 C6.02 11.99 6.02 11.99 4 13 C3.32694982 11.39850114 2.66177773 9.79368971 2 8.1875 C1.62875 7.29417969 1.2575 6.40085938 0.875 5.48046875 C0 3 0 3 0 0 Z " fill="#2891B2" transform="translate(147,201)"/>
<path d="M0 0 C-0.33 0.99 -0.66 1.98 -1 3 C-2.65 3 -4.3 3 -6 3 C-6.33 4.65 -6.66 6.3 -7 8 C-7.99 7.34 -8.98 6.68 -10 6 C-10.375 3.5 -10.375 3.5 -10 1 C-6.1496895 -1.56687367 -4.41430237 -0.83288724 0 0 Z " fill="#07B3BE" transform="translate(118,202)"/>
<path d="M0 0 C2.625 0.375 2.625 0.375 5 1 C5.042721 2.66611905 5.04063832 4.33382885 5 6 C4 7 4 7 1.4375 7.0625 C0.2309375 7.0315625 0.2309375 7.0315625 -1 7 C-1.625 4.625 -1.625 4.625 -2 2 C-1.34 1.34 -0.68 0.68 0 0 Z " fill="#4F80BB" transform="translate(338,156)"/>
<path d="M0 0 C3 3 3 3 4 7 C0.7 7 -2.6 7 -6 7 C-4.02 4.69 -2.04 2.38 0 0 Z " fill="#016979" transform="translate(156,25)"/>
<path d="M0 0 C0.66 0.99 1.32 1.98 2 3 C-7.41002278 12.59453303 -7.41002278 12.59453303 -12 16 C-12.66 15.67 -13.32 15.34 -14 15 C-13.07316406 14.08476562 -12.14632812 13.16953125 -11.19140625 12.2265625 C-9.98163961 11.0261739 -8.77201135 9.82564583 -7.5625 8.625 C-6.95083984 8.02171875 -6.33917969 7.4184375 -5.70898438 6.796875 C-5.12568359 6.21679688 -4.54238281 5.63671875 -3.94140625 5.0390625 C-3.40201416 4.50490723 -2.86262207 3.97075195 -2.30688477 3.42041016 C-0.89153023 2.01347612 -0.89153023 2.01347612 0 0 Z " fill="#009EA9" transform="translate(151,15)"/>
<path d="M0 0 C0.66 0.99 1.32 1.98 2 3 C0.93283928 4.20205464 -0.15438337 5.38632333 -1.25 6.5625 C-2.15492188 7.55443359 -2.15492188 7.55443359 -3.078125 8.56640625 C-3.71234375 9.03949219 -4.3465625 9.51257812 -5 10 C-6.32 9.67 -7.64 9.34 -9 9 C-6.03 6.03 -3.06 3.06 0 0 Z " fill="#017C8A" transform="translate(155,22)"/>
<path d="M0 0 C0.66 0.33 1.32 0.66 2 1 C2.125 3.375 2.125 3.375 2 6 C0 8 0 8 -1.9453125 8.1953125 C-3.96354167 8.13020833 -5.98177083 8.06510417 -8 8 C-8 7.01 -8 6.02 -8 5 C-6.02 5 -4.04 5 -2 5 C-1.34 3.35 -0.68 1.7 0 0 Z " fill="#1F6083" transform="translate(205,209)"/>
<path d="M0 0 C1.9375 0.375 1.9375 0.375 4 1 C4.99 1 5.98 1 7 1 C6.34 2.98 5.68 4.96 5 7 C2.69 5.35 0.38 3.7 -2 2 C-1.34 1.34 -0.68 0.68 0 0 Z " fill="#017384" transform="translate(221,62)"/>
<path d="M0 0 C3.96 0 7.92 0 12 0 C11.01 1.485 11.01 1.485 10 3 C8.125 3.328125 8.125 3.328125 6 3.25 C5.29875 3.23453125 4.5975 3.2190625 3.875 3.203125 C2 3 2 3 0 2 C0 1.34 0 0.68 0 0 Z " fill="#01BEC8" transform="translate(213,53)"/>
<path d="M0 0 C0.33 0.99 0.66 1.98 1 3 C0 4 0 4 -1.84765625 4.09765625 C-3.8984375 4.06510417 -5.94921875 4.03255208 -8 4 C-8 3.01 -8 2.02 -8 1 C-7.05125 1.020625 -6.1025 1.04125 -5.125 1.0625 C-2.09333717 1.22551826 -2.09333717 1.22551826 0 0 Z " fill="#0BC6D4" transform="translate(116,213)"/>
<path d="M0 0 C0 0.99 0 1.98 0 3 C0.66 3.33 1.32 3.66 2 4 C-4.75 3.25 -4.75 3.25 -7 1 C-3.375 -1.125 -3.375 -1.125 0 0 Z " fill="#015D6E" transform="translate(197,41)"/>
<path d="M0 0 C0 0.66 0 1.32 0 2 C-6.75 3.125 -6.75 3.125 -9 2 C-9 1.34 -9 0.68 -9 0 C-5.52176885 -1.15941038 -3.54104422 -0.70820884 0 0 Z " fill="#265E83" transform="translate(207,202)"/>
<path d="M0 0 C2.64 0 5.28 0 8 0 C8 0.99 8 1.98 8 3 C3.44615385 3.36923077 3.44615385 3.36923077 1.1875 1.5 C0.5996875 0.7575 0.5996875 0.7575 0 0 Z " fill="#3A5F8C" transform="translate(186,201)"/>
<path d="M0 0 C0.66 0.33 1.32 0.66 2 1 C-0.97 3.475 -0.97 3.475 -4 6 C-4.66 5.34 -5.32 4.68 -6 4 C-4.02 2.68 -2.04 1.36 0 0 Z M-8 5 C-7.34 5.33 -6.68 5.66 -6 6 C-6.99 6 -7.98 6 -9 6 C-8.67 5.67 -8.34 5.34 -8 5 Z " fill="#00C0C8" transform="translate(190,25)"/>
<path d="M0 0 C2.64 1.65 5.28 3.3 8 5 C7.01 5.495 7.01 5.495 6 6 C3.64018187 5.06421005 1.30368736 4.06652192 -1 3 C-0.67 2.01 -0.34 1.02 0 0 Z " fill="#00B2BA" transform="translate(164,29)"/>
</svg>
